<?xml version="1.0" encoding="utf-8"?>
<!-- Generator: Adobe Illustrator 26.5.0, SVG Export Plug-In . SVG Version: 6.00 Build 0)  -->
<svg version="1.1" id="Layer_1" xmlns="http://www.w3.org/2000/svg" xmlns:xlink="http://www.w3.org/1999/xlink" x="0px" y="0px"
	 viewBox="0 0 618.69 124.38" style="enable-background:new 0 0 618.69 124.38;" xml:space="preserve">
<style type="text/css">
	.st0{fill:#F7F3EF;}
	.st1{fill:#B0A005;}
	.st2{fill:#E0CDCC;}
	.st3{fill:#231F20;}
	.st4{fill:#404041;}
	.st5{fill:#B0B0B0;}
	.st6{fill:none;stroke:#000000;stroke-width:0.5;stroke-miterlimit:10;}
	.st7{fill:#EEB49F;}
	.st8{fill:#B0B0B0;stroke:#FFFFFF;stroke-miterlimit:10;}
	.st9{fill:#AF9F05;}
	.st10{fill:#FFFFFF;stroke:#FFFFFF;stroke-miterlimit:10;}
	
		.st11{clip-path:url(#SVGID_00000174592674232602634890000017529513234203806884_);fill:none;stroke:#000000;stroke-width:0.5;stroke-miterlimit:10;}
	
		.st12{clip-path:url(#SVGID_00000021096597480815939870000015046325367896419728_);fill:none;stroke:#000000;stroke-width:0.5;stroke-miterlimit:10;}
	.st13{fill:#D0833E;stroke:#D0833E;stroke-width:0.5;stroke-miterlimit:10;}
</style>
<g>
	<defs>
		<path id="SVGID_00000157297385489966063940000005978140483984622754_" d="M-375.21,512.1L-375.21,512.1
			c-137.46,0-248.9-111.44-248.9-248.9v-73.97c0-137.46,111.44-248.9,248.9-248.9h0c137.46,0,248.9,111.44,248.9,248.9v73.97
			C-126.31,400.66-237.75,512.1-375.21,512.1z"/>
	</defs>
	<clipPath id="SVGID_00000014624510487699035160000008934314398657762990_">
		<use xlink:href="#SVGID_00000157297385489966063940000005978140483984622754_"  style="overflow:visible;"/>
	</clipPath>
	<g style="clip-path:url(#SVGID_00000014624510487699035160000008934314398657762990_);">
		
			
	</g>
</g>
<g>
	<path class="st13" d="M23.84,85.5c0.23,0.42,0.36,0.87,0.39,1.33c0.03,0.46-0.01,0.92-0.14,1.37c-0.12,0.45-0.31,0.88-0.56,1.29
		c-0.25,0.41-0.53,0.77-0.85,1.09c-0.56,0.56-1.17,0.97-1.81,1.23s-1.3,0.38-1.96,0.36c-0.66-0.02-1.31-0.17-1.95-0.47
		s-1.23-0.71-1.78-1.25c-0.55-0.55-0.98-1.14-1.27-1.78c-0.3-0.64-0.46-1.29-0.49-1.96c-0.03-0.66,0.09-1.33,0.35-1.98
		c0.26-0.66,0.67-1.26,1.23-1.83c0.56-0.56,1.22-0.98,1.98-1.25c0.76-0.27,1.54-0.32,2.34-0.13c0.21,0.05,0.38,0.15,0.53,0.29
		c0.16,0.16,0.24,0.35,0.24,0.58c0,0.23-0.08,0.42-0.23,0.58c-0.16,0.16-0.35,0.23-0.58,0.23c-0.23,0-0.42-0.08-0.57-0.23
		c-0.16-0.16-0.24-0.35-0.24-0.58c0-0.23,0.08-0.42,0.24-0.58c0.09-0.09,0.16-0.14,0.22-0.16c-1.29-0.14-2.39,0.24-3.31,1.16
		c-0.49,0.49-0.83,1.03-1.02,1.61c-0.19,0.58-0.24,1.17-0.17,1.77c0.07,0.6,0.25,1.18,0.54,1.75c0.29,0.57,0.67,1.08,1.13,1.54
		c0.47,0.47,0.99,0.85,1.56,1.14c0.57,0.29,1.15,0.46,1.74,0.53c0.6,0.06,1.19,0,1.77-0.2s1.13-0.54,1.63-1.05
		c0.56-0.56,0.94-1.24,1.13-2.03c0.19-0.79,0.12-1.55-0.23-2.29L23.84,85.5z"/>
	<path class="st13" d="M31.53,80.32c-0.01,0.67-0.18,1.31-0.5,1.92s-0.73,1.14-1.22,1.59c-0.32,0.29-0.68,0.54-1.09,0.76
		c-0.41,0.22-0.82,0.36-1.23,0.43c-0.42,0.07-0.83,0.05-1.24-0.06c-0.41-0.11-0.78-0.35-1.12-0.72l-4.39-4.85
		c-0.16-0.17-0.36-0.3-0.61-0.38c-0.25-0.08-0.47-0.02-0.68,0.17l1.29-1.56l5.27,5.82c0.59,0.65,1.22,0.98,1.89,0.98
		c0.67,0,1.33-0.29,1.97-0.86c0.2-0.18,0.39-0.39,0.58-0.64c0.19-0.25,0.36-0.51,0.5-0.79c0.14-0.28,0.25-0.57,0.33-0.86
		s0.1-0.58,0.06-0.85c0-0.04-0.01-0.11-0.03-0.22c-0.02-0.11-0.05-0.18-0.08-0.21l-5.02-5.54c-0.16-0.18-0.36-0.3-0.61-0.38
		c-0.25-0.08-0.47-0.02-0.68,0.17l1.29-1.56l6.16,6.8c0.13,0.14,0.3,0.29,0.51,0.44c0.21,0.15,0.42,0.13,0.62-0.06
		c0.09-0.08,0.17-0.18,0.24-0.28c0.06-0.11,0.13-0.21,0.19-0.3c-0.05,0.25-0.14,0.5-0.27,0.73c-0.13,0.23-0.29,0.43-0.49,0.61
		c-0.33,0.3-0.62,0.4-0.87,0.3C32.04,80.79,31.79,80.6,31.53,80.32z"/>
	<path class="st13" d="M46.37,68.99c-0.15,0.37-0.34,0.73-0.56,1.08c-0.22,0.35-0.49,0.65-0.8,0.9c-0.68,0.54-1.34,0.74-1.99,0.62
		s-1.23-0.52-1.75-1.17l-4.81-6.08l-1.18,0.93l-0.09-0.12c0.4-0.32,0.68-0.66,0.82-1.01c0.15-0.35,0.2-0.72,0.16-1.09
		s-0.15-0.74-0.34-1.12c-0.19-0.37-0.42-0.74-0.7-1.08c-0.24-0.31-0.52-0.53-0.84-0.68c-0.32-0.15-0.66-0.22-1.01-0.23
		c-0.35-0.01-0.7,0.05-1.06,0.18c-0.35,0.13-0.68,0.31-0.99,0.55c-0.67,0.53-1.04,1.18-1.14,1.96c-0.09,0.78,0.13,1.51,0.65,2.17
		c0.22,0.27,0.49,0.5,0.81,0.67c0.33,0.18,0.67,0.33,1.03,0.45c0.36,0.12,0.73,0.23,1.11,0.34c0.37,0.1,0.71,0.21,1.02,0.33
		c0.18,0,0.33,0.01,0.45,0.03c0.12,0.02,0.24,0.1,0.36,0.26c0.14,0.17,0.19,0.38,0.17,0.6s-0.13,0.41-0.3,0.54
		c-0.19,0.15-0.39,0.21-0.6,0.18c-0.22-0.02-0.4-0.13-0.54-0.32c-0.13-0.16-0.18-0.36-0.16-0.58s0.11-0.4,0.26-0.54
		c-0.55,0.06-1.07,0.22-1.56,0.46c-0.49,0.25-0.95,0.54-1.37,0.87c-0.22,0.17-0.42,0.39-0.62,0.65c-0.19,0.26-0.35,0.54-0.46,0.84
		s-0.16,0.6-0.15,0.9c0.01,0.3,0.11,0.58,0.31,0.83c0.28,0.35,0.64,0.53,1.08,0.53c0.45,0,0.94-0.08,1.48-0.25s1.11-0.37,1.7-0.61
		c0.59-0.24,1.18-0.42,1.75-0.55c0.57-0.13,1.12-0.14,1.63-0.06c0.51,0.09,0.97,0.38,1.36,0.87c0.35,0.44,0.54,0.88,0.58,1.34
		s-0.02,0.9-0.18,1.34c-0.16,0.44-0.39,0.85-0.7,1.24c-0.31,0.38-0.65,0.73-1.02,1.02c-0.59,0.47-1.25,0.84-1.99,1.12
		c-0.74,0.28-1.49,0.39-2.27,0.33l0.02-0.18c0.76,0.02,1.49-0.09,2.17-0.33s1.33-0.6,1.92-1.06c0.27-0.22,0.53-0.47,0.76-0.77
		c0.23-0.3,0.41-0.62,0.54-0.96c0.12-0.34,0.17-0.68,0.15-1.04s-0.16-0.69-0.41-1.01c-0.33-0.42-0.77-0.62-1.32-0.63
		s-1.14,0.08-1.75,0.26c-0.62,0.18-1.22,0.39-1.81,0.63c-0.59,0.24-1.08,0.41-1.46,0.51c-0.49,0.12-0.96,0.14-1.42,0.04
		c-0.46-0.09-0.85-0.35-1.18-0.76c-0.31-0.39-0.48-0.79-0.51-1.2c-0.03-0.41,0.03-0.81,0.18-1.19c0.15-0.38,0.37-0.75,0.65-1.1
		c0.28-0.35,0.59-0.65,0.92-0.91c0.42-0.33,0.86-0.61,1.34-0.85c0.48-0.24,0.98-0.38,1.5-0.44c-0.29-0.1-0.61-0.21-0.94-0.31
		c-0.33-0.1-0.65-0.22-0.97-0.35c-0.32-0.13-0.62-0.29-0.91-0.47c-0.29-0.18-0.53-0.4-0.73-0.65c-0.28-0.35-0.47-0.72-0.58-1.1
		c-0.11-0.38-0.14-0.77-0.1-1.15c0.04-0.38,0.17-0.75,0.37-1.1c0.2-0.35,0.47-0.66,0.81-0.93c0.31-0.24,0.64-0.43,1.01-0.56
		c0.37-0.13,0.73-0.19,1.09-0.18c0.36,0.01,0.71,0.08,1.04,0.23c0.33,0.14,0.63,0.37,0.88,0.69c0.36,0.46,0.72,0.91,1.06,1.34
		c0.35,0.44,0.69,0.89,1.05,1.36l2.2-1.74l0.09,0.11l-2.2,1.74c0.6,0.75,1.19,1.51,1.78,2.27s1.18,1.51,1.78,2.27l1.37,1.74
		c0.39,0.49,0.82,0.83,1.3,1.01s0.99,0.05,1.54-0.38c0.25-0.2,0.46-0.43,0.64-0.71c0.17-0.27,0.31-0.56,0.42-0.85L46.37,68.99z"/>
	<path class="st13" d="M53.69,58.43c0.4,0.66,0.65,1.33,0.77,2.02c0.11,0.69,0.1,1.36-0.05,2s-0.42,1.25-0.83,1.8
		c-0.41,0.56-0.94,1.05-1.6,1.46c-0.67,0.42-1.35,0.69-2.05,0.81s-1.37,0.1-2.02-0.06c-0.66-0.15-1.27-0.45-1.85-0.87
		s-1.07-0.97-1.48-1.63c-0.42-0.66-0.69-1.34-0.82-2.04c-0.13-0.7-0.13-1.38,0.01-2.04c0.14-0.66,0.41-1.28,0.82-1.86
		c0.4-0.57,0.94-1.07,1.61-1.5c0.64-0.4,1.29-0.67,1.95-0.79c0.66-0.13,1.31-0.13,1.94,0c0.63,0.13,1.23,0.38,1.8,0.76
		s1.07,0.86,1.51,1.46c0.04-0.38,0.06-0.77,0.08-1.15s0.03-0.76,0.05-1.16l-0.87-1.38c-0.13-0.2-0.3-0.36-0.54-0.48
		s-0.46-0.1-0.7,0.04l1.54-1.32l0.76,1.2c0.14-0.61,0.36-1.2,0.66-1.75c0.3-0.55,0.74-1.01,1.3-1.36c0.33-0.21,0.68-0.38,1.04-0.52
		c0.37-0.14,0.73-0.22,1.1-0.23c0.37-0.02,0.73,0.04,1.08,0.17c0.35,0.13,0.67,0.36,0.96,0.69c-0.12-0.37-0.15-0.74-0.1-1.11
		c0.05-0.37,0.16-0.73,0.33-1.07c0.16-0.34,0.38-0.65,0.64-0.93c0.26-0.28,0.54-0.51,0.85-0.71c0.32-0.2,0.67-0.36,1.07-0.48
		s0.79-0.17,1.2-0.16c0.4,0.01,0.78,0.1,1.14,0.27c0.36,0.17,0.66,0.44,0.89,0.8c0.58,0.9,1.16,1.8,1.72,2.71
		c0.56,0.91,1.13,1.82,1.71,2.74c0.22,0.34,0.5,0.59,0.85,0.74c0.35,0.15,0.71,0.11,1.09-0.13l-3.24,2.04
		c0.38-0.24,0.57-0.55,0.59-0.93c0.02-0.38-0.08-0.74-0.3-1.08l-3.42-5.43c-0.41-0.65-0.9-1.05-1.48-1.21
		c-0.58-0.16-1.2-0.02-1.87,0.4c-0.37,0.23-0.68,0.51-0.94,0.85c-0.26,0.34-0.45,0.7-0.56,1.08c-0.11,0.38-0.15,0.77-0.11,1.17
		c0.04,0.39,0.18,0.76,0.4,1.09l3.22,5.11c0.21,0.33,0.49,0.56,0.85,0.69c0.36,0.13,0.71,0.08,1.04-0.15l-3.24,2.04
		c0.37-0.22,0.57-0.52,0.59-0.9c0.02-0.38-0.08-0.75-0.29-1.09l-3.3-5.25c-0.41-0.73-0.92-1.19-1.53-1.37
		c-0.61-0.18-1.27-0.05-1.98,0.39c-0.62,0.39-1.07,0.9-1.34,1.52s-0.45,1.3-0.55,2.03c-0.1,0.73-0.16,1.49-0.17,2.29
		s-0.09,1.58-0.23,2.33s-0.37,1.46-0.7,2.12c-0.33,0.66-0.87,1.23-1.61,1.69c-0.53,0.33-1.08,0.56-1.64,0.69s-1.11,0.14-1.65,0.05
		c-0.54-0.09-1.04-0.29-1.51-0.6c-0.47-0.31-0.88-0.74-1.22-1.28c-0.13-0.21-0.25-0.44-0.36-0.69c0.17,0.83,0.49,1.6,0.94,2.32
		c0.33,0.52,0.73,1,1.2,1.45c0.47,0.45,0.99,0.8,1.54,1.05c0.55,0.25,1.13,0.38,1.73,0.38c0.6,0,1.2-0.19,1.8-0.57
		c0.44-0.27,0.78-0.59,1.03-0.93s0.43-0.72,0.53-1.12c0.1-0.4,0.14-0.83,0.12-1.27c-0.02-0.45-0.08-0.9-0.19-1.36l-0.01-0.02
		c-0.04-0.43-0.02-0.85,0.08-1.25C53.58,59.26,53.65,58.85,53.69,58.43z M45.23,61.58c0.33,0.52,0.72,0.93,1.17,1.23
		c0.45,0.3,0.93,0.49,1.44,0.58c0.51,0.08,1.03,0.07,1.57-0.06c0.54-0.12,1.06-0.34,1.55-0.66c0.53-0.33,0.96-0.73,1.3-1.2
		c0.34-0.47,0.6-1,0.79-1.59c-0.16-0.33-0.33-0.63-0.5-0.92c-0.33-0.52-0.72-1-1.19-1.45c-0.47-0.45-0.98-0.79-1.53-1.05
		c-0.55-0.26-1.12-0.38-1.73-0.38c-0.61,0-1.21,0.19-1.81,0.57c-0.44,0.27-0.79,0.6-1.06,0.99c-0.27,0.38-0.45,0.8-0.54,1.24
		c-0.09,0.44-0.09,0.9,0,1.36C44.77,60.69,44.96,61.14,45.23,61.58z M57.71,60.07c0.21,0.34,0.5,0.59,0.86,0.73s0.71,0.1,1.07-0.14
		L56.4,62.7c0.38-0.23,0.58-0.53,0.6-0.91c0.02-0.38-0.08-0.74-0.3-1.08l-2.1-3.34c-0.31-0.5-0.49-0.99-0.54-1.48
		c-0.04-0.49-0.04-1.02,0.02-1.58L57.71,60.07z"/>
	<path class="st13" d="M89.92,44.28c-0.24,0.32-0.5,0.63-0.8,0.92c-0.3,0.29-0.63,0.52-1,0.68c-0.79,0.36-1.48,0.4-2.08,0.12
		c-0.6-0.28-1.07-0.8-1.42-1.56l-3.21-7.06l-1.37,0.62l-0.06-0.13c0.47-0.21,0.82-0.47,1.04-0.78s0.37-0.65,0.42-1.02
		c0.05-0.37,0.03-0.76-0.06-1.17c-0.09-0.41-0.23-0.82-0.42-1.22c-0.16-0.35-0.38-0.64-0.66-0.86c-0.28-0.22-0.58-0.37-0.92-0.46
		c-0.34-0.09-0.7-0.12-1.07-0.08c-0.37,0.04-0.74,0.14-1.09,0.3c-0.77,0.35-1.3,0.9-1.57,1.63c-0.28,0.74-0.24,1.49,0.11,2.27
		c0.14,0.32,0.35,0.6,0.63,0.85c0.27,0.25,0.57,0.48,0.9,0.68c0.32,0.21,0.65,0.4,0.99,0.59c0.34,0.19,0.64,0.38,0.91,0.56
		c0.17,0.04,0.32,0.09,0.43,0.14c0.11,0.05,0.21,0.16,0.29,0.34c0.09,0.2,0.1,0.41,0.02,0.62c-0.08,0.21-0.22,0.36-0.42,0.46
		c-0.21,0.1-0.42,0.11-0.63,0.03c-0.2-0.08-0.35-0.22-0.45-0.44c-0.09-0.19-0.09-0.39-0.02-0.6s0.2-0.36,0.39-0.46
		c-0.55-0.07-1.1-0.04-1.63,0.08c-0.53,0.12-1.05,0.29-1.54,0.52c-0.25,0.12-0.51,0.28-0.76,0.48c-0.25,0.21-0.46,0.44-0.64,0.71
		c-0.18,0.26-0.3,0.55-0.36,0.84c-0.06,0.3-0.03,0.59,0.1,0.88c0.18,0.41,0.49,0.66,0.92,0.77c0.43,0.11,0.93,0.15,1.5,0.11
		c0.57-0.04,1.17-0.1,1.8-0.19s1.24-0.13,1.83-0.11c0.59,0.02,1.12,0.13,1.6,0.34c0.48,0.21,0.85,0.6,1.11,1.17
		c0.23,0.51,0.31,0.99,0.24,1.44s-0.23,0.87-0.5,1.26c-0.26,0.39-0.59,0.73-0.98,1.03c-0.39,0.3-0.8,0.55-1.23,0.74
		c-0.68,0.31-1.42,0.51-2.2,0.61c-0.78,0.1-1.54,0.02-2.28-0.22l0.06-0.17c0.73,0.2,1.46,0.27,2.19,0.2
		c0.73-0.07,1.43-0.26,2.12-0.57c0.32-0.14,0.62-0.33,0.92-0.57c0.3-0.24,0.55-0.5,0.75-0.8s0.33-0.62,0.4-0.97
		c0.06-0.35,0.01-0.71-0.16-1.08c-0.22-0.48-0.6-0.79-1.13-0.93c-0.54-0.14-1.13-0.2-1.77-0.17c-0.64,0.02-1.27,0.08-1.9,0.18
		c-0.63,0.1-1.14,0.14-1.54,0.14c-0.5,0-0.97-0.1-1.39-0.3c-0.42-0.2-0.74-0.54-0.96-1.02c-0.21-0.46-0.28-0.89-0.21-1.29
		c0.07-0.41,0.22-0.78,0.46-1.11c0.24-0.34,0.54-0.64,0.89-0.91c0.36-0.27,0.73-0.49,1.11-0.67c0.48-0.22,0.98-0.39,1.51-0.5
		c0.52-0.11,1.04-0.14,1.56-0.07c-0.26-0.17-0.54-0.35-0.84-0.53s-0.58-0.37-0.86-0.57c-0.28-0.2-0.53-0.43-0.77-0.67
		c-0.23-0.25-0.42-0.51-0.55-0.81c-0.18-0.41-0.28-0.81-0.3-1.21c-0.01-0.4,0.05-0.78,0.18-1.14s0.34-0.69,0.62-0.98
		c0.28-0.29,0.62-0.53,1.01-0.71c0.36-0.16,0.73-0.26,1.11-0.3s0.76-0.01,1.11,0.08c0.35,0.09,0.67,0.25,0.96,0.47
		c0.29,0.22,0.52,0.51,0.69,0.88c0.24,0.53,0.48,1.05,0.71,1.56s0.46,1.03,0.69,1.57l2.55-1.16l0.06,0.13l-2.55,1.16
		c0.4,0.88,0.79,1.75,1.18,2.63c0.39,0.88,0.79,1.75,1.18,2.63l0.92,2.02c0.26,0.57,0.6,1,1.02,1.29c0.42,0.29,0.95,0.29,1.58,0
		c0.29-0.13,0.56-0.31,0.79-0.53s0.44-0.46,0.61-0.73L89.92,44.28z"/>
	<path class="st13" d="M106.52,38.29c-0.27,0.32-0.56,0.61-0.88,0.87s-0.67,0.46-1.06,0.6c-0.83,0.3-1.53,0.27-2.11-0.09
		c-0.58-0.35-1.01-0.93-1.3-1.73l-2.52-7.02c-0.25,0.62-0.65,1.22-1.19,1.79c-0.54,0.57-1.14,1.13-1.79,1.67
		c-0.65,0.54-1.3,1.08-1.95,1.62s-1.21,1.09-1.69,1.66c-0.48,0.57-0.82,1.16-1.03,1.78c-0.21,0.62-0.19,1.26,0.05,1.94
		c0.25,0.68,0.65,1.21,1.22,1.57c0.57,0.37,1.21,0.42,1.93,0.16c0.26-0.09,0.55-0.25,0.87-0.47c0.31-0.22,0.61-0.47,0.89-0.76
		s0.51-0.6,0.7-0.92c0.19-0.32,0.29-0.62,0.31-0.91l-1.61-4.48c-0.1-0.28-0.04-0.52,0.18-0.73c0.22-0.21,0.43-0.4,0.62-0.56
		l2.09,5.82c0.04,0.1,0.08,0.23,0.13,0.36c0.05,0.14,0.11,0.26,0.19,0.38c0.08,0.11,0.17,0.2,0.27,0.26c0.1,0.06,0.23,0.06,0.39,0
		c0.21-0.08,0.41-0.21,0.61-0.4c-0.31,0.47-0.72,0.79-1.23,0.97c-0.28,0.1-0.5,0.12-0.66,0.07c-0.17-0.05-0.31-0.15-0.42-0.29
		c-0.11-0.15-0.2-0.32-0.26-0.52c-0.06-0.2-0.13-0.4-0.2-0.59c-0.09,0.37-0.24,0.72-0.47,1.04c-0.22,0.32-0.49,0.62-0.79,0.89
		c-0.3,0.27-0.63,0.51-0.97,0.72c-0.35,0.21-0.69,0.37-1.03,0.49c-0.39,0.14-0.79,0.22-1.2,0.24s-0.79-0.03-1.14-0.16
		s-0.68-0.32-0.96-0.59s-0.51-0.62-0.67-1.05c-0.2-0.55-0.23-1.08-0.09-1.59c0.14-0.51,0.38-0.99,0.74-1.44
		c0.65-0.79,1.37-1.53,2.18-2.19c0.8-0.67,1.6-1.33,2.39-1.98c-0.29-0.84-0.76-1.41-1.42-1.7c-0.66-0.29-1.4-0.29-2.23,0.01
		c-0.29,0.1-0.58,0.25-0.89,0.43c-0.3,0.18-0.58,0.4-0.83,0.64s-0.47,0.51-0.64,0.81c-0.18,0.29-0.29,0.6-0.33,0.93
		c0.11-0.1,0.21-0.16,0.29-0.19c0.21-0.08,0.42-0.06,0.62,0.04c0.21,0.1,0.35,0.25,0.42,0.45c0.08,0.21,0.06,0.42-0.03,0.62
		s-0.25,0.34-0.46,0.42c-0.22,0.08-0.43,0.07-0.63-0.02c-0.2-0.09-0.33-0.25-0.41-0.47c-0.04-0.12-0.06-0.21-0.06-0.29
		c0.01-0.43,0.09-0.83,0.26-1.2c0.16-0.37,0.38-0.71,0.66-1.01c0.28-0.31,0.59-0.58,0.95-0.81c0.36-0.23,0.73-0.42,1.11-0.55
		s0.79-0.23,1.23-0.28s0.87-0.04,1.29,0.04c0.42,0.07,0.81,0.21,1.16,0.43c0.36,0.21,0.65,0.51,0.88,0.91
		c0.54-0.47,1.03-0.95,1.47-1.44c0.44-0.48,0.79-1,1.05-1.54c0.26-0.54,0.4-1.13,0.43-1.75s-0.08-1.31-0.35-2.06l1.08,3.01
		l2.63-0.95l0.05,0.14l-2.63,0.95l2.74,7.63c0.21,0.59,0.51,1.03,0.91,1.32c0.39,0.29,0.9,0.32,1.53,0.09
		c0.3-0.11,0.58-0.26,0.82-0.46c0.25-0.2,0.47-0.43,0.67-0.7L106.52,38.29z"/>
	<path class="st13" d="M106.72,25.83c0.06,0.21,0.04,0.42-0.07,0.62s-0.27,0.33-0.48,0.4c-0.2,0.06-0.4,0.04-0.61-0.07
		s-0.34-0.26-0.41-0.48c-0.06-0.21-0.04-0.42,0.06-0.63s0.26-0.34,0.48-0.4c0.23-0.07,0.44-0.04,0.63,0.07
		C106.52,25.45,106.65,25.62,106.72,25.83z M109.63,36.3c0.12,0.39,0.33,0.7,0.63,0.93c0.3,0.24,0.66,0.29,1.08,0.17l-3.66,1.1
		c0.43-0.13,0.7-0.37,0.82-0.73c0.12-0.36,0.12-0.74,0-1.12l-2.18-7.26c-0.07-0.23-0.2-0.43-0.39-0.6
		c-0.19-0.18-0.42-0.22-0.69-0.14l1.84-0.86L109.63,36.3z"/>
	<path class="st13" d="M121.29,29.52c0.16,0.75,0.18,1.47,0.06,2.16c-0.12,0.69-0.36,1.32-0.71,1.88c-0.35,0.56-0.81,1.04-1.38,1.43
		c-0.57,0.39-1.23,0.68-1.99,0.85c-0.77,0.18-1.51,0.21-2.2,0.09c-0.69-0.12-1.32-0.36-1.89-0.72c-0.57-0.36-1.05-0.84-1.46-1.43
		c-0.4-0.59-0.69-1.27-0.86-2.03c-0.17-0.76-0.21-1.49-0.11-2.19c0.1-0.7,0.33-1.34,0.68-1.93s0.81-1.08,1.38-1.49
		c0.57-0.41,1.24-0.7,2.02-0.88c0.73-0.17,1.43-0.2,2.1-0.11c0.67,0.1,1.28,0.31,1.83,0.64c0.55,0.33,1.04,0.77,1.46,1.31
		c0.42,0.54,0.73,1.17,0.94,1.9c0.16-0.37,0.31-0.72,0.45-1.08s0.28-0.71,0.43-1.07l-0.36-1.57c-0.05-0.23-0.17-0.44-0.35-0.64
		s-0.41-0.26-0.68-0.2l1.89-0.71l0.32,1.41c0.4-0.63,0.86-1.16,1.4-1.56c0.54-0.41,1.17-0.7,1.9-0.87c0.38-0.09,0.8-0.13,1.26-0.14
		c0.46-0.01,0.91,0.05,1.33,0.17s0.8,0.31,1.13,0.58c0.33,0.27,0.54,0.64,0.65,1.11c0.26,1.06,0.5,2.1,0.73,3.14
		c0.23,1.04,0.47,2.08,0.71,3.13c0.09,0.39,0.28,0.72,0.56,0.98c0.28,0.26,0.64,0.34,1.07,0.24l-3.73,0.83
		c0.42-0.1,0.71-0.32,0.85-0.68c0.15-0.35,0.18-0.73,0.08-1.12l-1.43-6.22c-0.19-0.81-0.59-1.36-1.21-1.65
		c-0.62-0.28-1.31-0.34-2.07-0.17c-0.54,0.12-1.02,0.32-1.44,0.6c-0.42,0.27-0.78,0.6-1.11,0.97c-0.32,0.37-0.6,0.79-0.84,1.24
		c-0.24,0.46-0.44,0.93-0.62,1.43c-0.21,0.58-0.45,1.17-0.72,1.77c-0.27,0.61-0.59,1.17-0.97,1.69c-0.38,0.52-0.82,0.98-1.32,1.36
		c-0.5,0.39-1.07,0.65-1.72,0.8c-0.61,0.14-1.2,0.18-1.78,0.11c-0.57-0.07-1.1-0.23-1.57-0.49c-0.47-0.26-0.88-0.61-1.23-1.06
		c-0.35-0.45-0.59-0.99-0.73-1.61c-0.06-0.26-0.1-0.51-0.11-0.77c-0.11,0.84-0.07,1.67,0.12,2.5c0.14,0.6,0.35,1.18,0.65,1.76
		c0.3,0.58,0.66,1.07,1.1,1.49c0.44,0.42,0.94,0.73,1.51,0.93c0.57,0.2,1.2,0.22,1.89,0.06c0.5-0.12,0.93-0.29,1.28-0.54
		c0.35-0.24,0.64-0.54,0.87-0.88c0.23-0.35,0.41-0.73,0.54-1.15c0.13-0.42,0.22-0.87,0.27-1.34l0-0.02c0.1-0.42,0.26-0.81,0.49-1.15
		C120.9,30.27,121.1,29.9,121.29,29.52z M112.26,29.7c0.14,0.6,0.37,1.11,0.7,1.53c0.33,0.43,0.71,0.76,1.16,1.01
		c0.45,0.25,0.95,0.4,1.5,0.46c0.55,0.06,1.11,0.02,1.68-0.11c1.18-0.27,2.14-0.91,2.88-1.93c-0.02-0.32-0.07-0.67-0.15-1.04
		c-0.14-0.6-0.35-1.18-0.65-1.76c-0.3-0.58-0.66-1.07-1.09-1.5c-0.43-0.42-0.94-0.73-1.51-0.93s-1.21-0.22-1.9-0.06
		c-0.5,0.12-0.94,0.31-1.32,0.58c-0.38,0.27-0.69,0.6-0.92,0.99c-0.23,0.39-0.38,0.82-0.45,1.28
		C112.12,28.72,112.15,29.2,112.26,29.7z M124.54,32.39c0.09,0.39,0.28,0.72,0.57,0.97c0.29,0.26,0.64,0.34,1.06,0.24l-3.73,0.83
		c0.43-0.1,0.72-0.33,0.86-0.68c0.14-0.35,0.17-0.73,0.08-1.12l-0.88-3.82c-0.13-0.57-0.14-1.09-0.02-1.58
		c0.12-0.48,0.3-0.98,0.54-1.49L124.54,32.39z"/>
	<path class="st13" d="M148.4,19.41c-1.15,0.15-2.05,0.53-2.73,1.15c-0.67,0.62-1.21,1.36-1.63,2.22c-0.42,0.86-0.77,1.78-1.06,2.75
		c-0.29,0.97-0.63,1.89-1.02,2.75c-0.39,0.86-0.9,1.6-1.53,2.21s-1.48,0.99-2.57,1.13c-0.46,0.06-0.91,0.06-1.37,0.01
		c-0.46-0.05-0.87-0.17-1.25-0.36c-0.38-0.19-0.7-0.46-0.96-0.8c-0.26-0.34-0.43-0.78-0.5-1.3c-0.08-0.58,0.01-1.1,0.25-1.56
		c0.24-0.46,0.6-0.85,1.08-1.16c0.36-0.24,0.8-0.44,1.3-0.6c0.51-0.16,1.01-0.33,1.5-0.51c0.5-0.18,0.95-0.4,1.37-0.66
		c0.42-0.26,0.72-0.61,0.92-1.06c0.02-0.06,0.06-0.16,0.11-0.3c0.05-0.14,0.07-0.24,0.07-0.31c-0.05-0.39-0.17-0.72-0.37-1
		s-0.44-0.51-0.73-0.69c-0.29-0.17-0.61-0.29-0.96-0.35c-0.35-0.06-0.71-0.07-1.07-0.02c-0.32,0.04-0.65,0.12-0.98,0.23
		c-0.34,0.11-0.65,0.26-0.94,0.45c-0.29,0.19-0.56,0.41-0.79,0.66s-0.42,0.54-0.54,0.85c0.11-0.06,0.21-0.09,0.32-0.11
		c0.22-0.03,0.42,0.02,0.6,0.15c0.18,0.13,0.28,0.31,0.31,0.55c0.03,0.22-0.03,0.42-0.17,0.6c-0.14,0.18-0.32,0.28-0.54,0.31
		c-0.24,0.03-0.44-0.02-0.61-0.16c-0.17-0.14-0.27-0.32-0.3-0.54c-0.01-0.08-0.01-0.16,0-0.22s0.03-0.13,0.05-0.21
		c0.26-0.83,0.73-1.48,1.4-1.93s1.43-0.73,2.26-0.84c0.41-0.05,0.86-0.05,1.34,0.01c0.48,0.06,0.93,0.18,1.34,0.37
		s0.77,0.45,1.07,0.78c0.3,0.33,0.48,0.74,0.54,1.24c0.1,0.7,0.2,1.41,0.29,2.12s0.18,1.42,0.29,2.12c0.32-0.86,0.62-1.72,0.89-2.58
		c0.27-0.86,0.62-1.7,1.07-2.5l-0.08-0.58c-0.02-0.14-0.04-0.29-0.08-0.45s-0.09-0.31-0.16-0.44c-0.07-0.13-0.17-0.24-0.29-0.32
		s-0.28-0.11-0.47-0.09l1.95-0.55l0.13,1.02c0.45-0.46,0.94-0.83,1.49-1.1c0.55-0.27,1.14-0.44,1.78-0.52
		c0.37-0.05,0.75-0.06,1.12-0.04s0.74,0.09,1.09,0.22l0,0.02c0.3,0.13,0.47,0.34,0.5,0.63c0.03,0.24-0.02,0.44-0.16,0.61
		c-0.14,0.17-0.32,0.27-0.54,0.3c-0.24,0.03-0.44-0.02-0.61-0.15c-0.17-0.13-0.27-0.32-0.3-0.55c-0.02-0.19,0.01-0.37,0.12-0.54
		c0.1-0.17,0.25-0.28,0.44-0.33C149.5,19.34,148.94,19.34,148.4,19.41z M137.33,31.48c0.11,0.01,0.23,0.01,0.35,0
		c0.12-0.01,0.23-0.03,0.34-0.04c0.73-0.09,1.35-0.32,1.86-0.66c0.51-0.35,0.96-0.83,1.36-1.44l-0.77-5.95
		c-0.11,0.46-0.33,0.83-0.67,1.1c-0.34,0.27-0.72,0.49-1.14,0.67c-0.43,0.18-0.87,0.36-1.32,0.52c-0.46,0.16-0.87,0.38-1.22,0.63
		c-0.36,0.26-0.64,0.59-0.84,1s-0.26,0.95-0.17,1.61c0.04,0.29,0.11,0.58,0.23,0.88c0.12,0.29,0.27,0.56,0.45,0.81
		c0.19,0.24,0.41,0.45,0.67,0.61C136.71,31.38,137,31.47,137.33,31.48z M143.89,30.25c-0.43,0.39-0.9,0.62-1.41,0.69
		c-0.3,0.04-0.56,0-0.76-0.13s-0.33-0.35-0.37-0.67c-0.01-0.06,0.03-0.17,0.12-0.34s0.19-0.36,0.31-0.57s0.23-0.4,0.33-0.59
		c0.11-0.19,0.18-0.33,0.21-0.42c0.02,0.12,0.03,0.32,0.04,0.58c0.01,0.27,0.05,0.53,0.1,0.79c0.05,0.26,0.14,0.49,0.25,0.67
		c0.11,0.19,0.27,0.27,0.47,0.24c0.12-0.02,0.25-0.05,0.37-0.1S143.78,30.31,143.89,30.25z M146.2,28.73
		c0.05,0.4,0.21,0.74,0.46,1.03c0.25,0.28,0.6,0.4,1.04,0.34l-3.79,0.49c0.43-0.06,0.73-0.25,0.91-0.59
		c0.18-0.34,0.25-0.71,0.19-1.11l-0.66-5.08c-0.04-0.32-0.04-0.58-0.01-0.78c0.04-0.2,0.1-0.39,0.18-0.56
		c0.08-0.17,0.19-0.34,0.31-0.51c0.12-0.17,0.26-0.38,0.39-0.62L146.2,28.73z"/>
	<path class="st13" d="M156.91,31.27c-0.2,0.39-0.45,0.75-0.75,1.09s-0.69,0.53-1.18,0.56c-0.4,0.03-0.78-0.11-1.13-0.4
		c-0.35-0.29-0.54-0.65-0.57-1.06c-0.01-0.22,0.05-0.42,0.19-0.59c0.14-0.17,0.33-0.26,0.57-0.28c0.21-0.01,0.4,0.06,0.58,0.21
		c0.18,0.16,0.27,0.34,0.29,0.55c0.01,0.22-0.06,0.42-0.21,0.59c-0.16,0.17-0.34,0.26-0.55,0.28c-0.14,0.01-0.24,0-0.29-0.02
		c0.11,0.26,0.26,0.42,0.45,0.5c0.19,0.07,0.42,0.1,0.7,0.08c0.43-0.03,0.79-0.2,1.08-0.51c0.29-0.31,0.52-0.65,0.69-1.01
		c0.28-0.58,0.54-1.16,0.78-1.75c0.24-0.59,0.48-1.19,0.74-1.79l-4.76-7.4c-0.17-0.24-0.37-0.48-0.61-0.73s-0.52-0.35-0.84-0.33
		c0.11-0.01,0.23-0.02,0.35-0.03s0.25-0.03,0.37-0.03l2.59-0.16c-0.21,0.01-0.39,0.09-0.53,0.22c-0.15,0.13-0.21,0.31-0.2,0.51
		c0.01,0.17,0.06,0.33,0.16,0.49l3.97,6.18l2.96-6.93c0.03-0.03,0.04-0.08,0.04-0.16c0-0.08,0-0.14,0-0.18
		c-0.01-0.18-0.08-0.31-0.21-0.39c-0.13-0.08-0.28-0.12-0.45-0.11l1.36-0.08c0.11-0.01,0.22-0.01,0.32-0.01c0.1,0,0.21,0,0.32-0.01
		c-0.33,0.02-0.61,0.17-0.83,0.46c-0.22,0.29-0.39,0.57-0.51,0.84c-0.58,1.24-1.12,2.48-1.63,3.73c-0.51,1.25-1.03,2.51-1.56,3.77
		c-0.28,0.66-0.55,1.32-0.81,1.98C157.52,29.99,157.23,30.64,156.91,31.27z"/>
	<path class="st13" d="M164.48,28.36c0.01,0.18-0.01,0.38-0.06,0.59c-0.05,0.21-0.12,0.41-0.22,0.6c-0.1,0.19-0.22,0.36-0.37,0.5
		c-0.15,0.14-0.32,0.24-0.51,0.29c0.27-0.15,0.48-0.38,0.62-0.69c0.14-0.31,0.21-0.61,0.2-0.91l0-0.1c-0.13,0.2-0.34,0.31-0.62,0.32
		c-0.22,0.01-0.42-0.05-0.59-0.19c-0.17-0.13-0.26-0.32-0.27-0.55c-0.01-0.26,0.07-0.48,0.23-0.65c0.16-0.17,0.37-0.25,0.64-0.26
		c0.32-0.01,0.56,0.09,0.71,0.3C164.39,27.81,164.47,28.07,164.48,28.36z"/>
	<path class="st13" d="M173.84,27.15c-0.01,0.4,0.09,0.76,0.3,1.08s0.54,0.48,0.98,0.49l-3.82-0.07c0.45,0.01,0.78-0.14,1-0.45
		c0.22-0.31,0.34-0.67,0.34-1.07l0.26-13.7c0-0.24-0.06-0.47-0.19-0.69c-0.13-0.22-0.33-0.34-0.61-0.35l2.01-0.25l-0.14,7.39
		c0.47-0.48,1.03-0.82,1.68-1.03c0.65-0.21,1.31-0.31,1.98-0.3c0.43,0.01,0.87,0.07,1.31,0.18s0.84,0.29,1.19,0.52
		s0.64,0.54,0.86,0.9c0.22,0.37,0.33,0.8,0.32,1.3l-0.12,6.18c-0.01,0.4,0.09,0.76,0.3,1.08c0.21,0.32,0.54,0.48,0.98,0.49
		l-3.82-0.07c0.45,0.01,0.78-0.14,1-0.45c0.22-0.31,0.34-0.67,0.34-1.07l0.12-6.27c0.02-0.86-0.23-1.52-0.74-1.97
		s-1.18-0.68-2.01-0.7c-0.26,0-0.55,0.02-0.87,0.08s-0.62,0.14-0.92,0.24c-0.3,0.11-0.58,0.24-0.83,0.41s-0.46,0.37-0.62,0.6
		c-0.03,0.03-0.06,0.08-0.11,0.17c-0.04,0.08-0.06,0.14-0.07,0.17L173.84,27.15z"/>
	<path class="st13" d="M199.5,19.65c-1.11-0.1-2.05,0.08-2.81,0.55c-0.76,0.46-1.43,1.07-2.01,1.81c-0.58,0.75-1.11,1.56-1.6,2.45
		c-0.49,0.89-1.02,1.7-1.59,2.45c-0.57,0.75-1.22,1.35-1.96,1.82c-0.74,0.47-1.65,0.65-2.73,0.55c-0.46-0.04-0.91-0.14-1.35-0.29
		c-0.44-0.15-0.82-0.36-1.15-0.63c-0.33-0.27-0.58-0.6-0.76-0.99s-0.25-0.85-0.2-1.38c0.05-0.58,0.25-1.07,0.59-1.47
		c0.34-0.4,0.78-0.7,1.3-0.9c0.41-0.16,0.87-0.26,1.39-0.31c0.52-0.04,1.04-0.1,1.57-0.17c0.52-0.07,1.02-0.19,1.48-0.34
		c0.46-0.15,0.83-0.42,1.12-0.78c0.05-0.05,0.11-0.15,0.2-0.3c0.09-0.15,0.14-0.25,0.14-0.32c0.04-0.4-0.01-0.76-0.15-1.07
		s-0.32-0.58-0.57-0.82c-0.25-0.23-0.53-0.42-0.86-0.55c-0.33-0.13-0.68-0.22-1.04-0.25c-0.32-0.03-0.66-0.02-1.01,0.02
		c-0.35,0.04-0.69,0.12-1.02,0.23c-0.32,0.12-0.63,0.28-0.91,0.47s-0.52,0.44-0.71,0.71c0.11-0.03,0.22-0.04,0.32-0.03
		c0.22,0.02,0.41,0.12,0.55,0.29c0.14,0.17,0.21,0.37,0.19,0.59c-0.02,0.22-0.12,0.41-0.29,0.55c-0.17,0.15-0.37,0.21-0.59,0.19
		c-0.25-0.02-0.44-0.13-0.57-0.31s-0.18-0.4-0.16-0.63c0-0.04,0.02-0.12,0.06-0.22c0.2-0.4,0.46-0.74,0.77-1.01
		c0.31-0.27,0.66-0.49,1.03-0.65c0.38-0.16,0.78-0.27,1.19-0.33c0.42-0.06,0.84-0.07,1.27-0.03c0.42,0.04,0.85,0.13,1.31,0.29
		s0.86,0.38,1.22,0.65c0.36,0.28,0.65,0.61,0.88,0.99c0.22,0.38,0.32,0.83,0.27,1.32l-0.38,4.25c0.5-0.75,0.98-1.52,1.43-2.31
		c0.45-0.79,0.98-1.52,1.57-2.21c0.02-0.1,0.04-0.19,0.05-0.28c0.01-0.09,0.02-0.18,0.03-0.28c0.01-0.14,0.02-0.29,0.02-0.46
		s-0.02-0.33-0.06-0.48c-0.04-0.15-0.12-0.28-0.22-0.39c-0.1-0.11-0.25-0.17-0.45-0.19l2.02-0.11l-0.09,1
		c0.54-0.36,1.1-0.6,1.69-0.74c0.59-0.14,1.21-0.18,1.85-0.12c0.39,0.03,0.79,0.12,1.21,0.25c0.42,0.13,0.8,0.33,1.14,0.57
		c0.34,0.25,0.62,0.55,0.82,0.9c0.21,0.35,0.29,0.77,0.25,1.24l-0.57,6.43c-0.04,0.4,0.04,0.77,0.23,1.1
		c0.19,0.33,0.5,0.52,0.95,0.56l-3.83-0.36c0.44,0.04,0.79-0.09,1.03-0.38c0.24-0.29,0.38-0.64,0.42-1.04l0.57-6.35
		c0.08-0.84-0.12-1.5-0.58-1.96C200.94,19.99,200.3,19.72,199.5,19.65z M186.25,29.02c0.11,0.04,0.22,0.06,0.35,0.07
		c0.12,0.01,0.24,0.02,0.35,0.03c0.74,0.07,1.39-0.02,1.97-0.24c0.58-0.23,1.12-0.6,1.63-1.11l0.53-5.97
		c-0.21,0.43-0.5,0.74-0.89,0.93s-0.81,0.33-1.26,0.41c-0.46,0.08-0.92,0.16-1.4,0.22c-0.48,0.06-0.92,0.18-1.32,0.35
		s-0.74,0.44-1.02,0.79s-0.46,0.87-0.52,1.55c-0.03,0.29-0.01,0.59,0.04,0.91c0.05,0.31,0.13,0.61,0.26,0.88s0.29,0.52,0.51,0.73
		C185.69,28.77,185.95,28.92,186.25,29.02z M192.94,29.24c-0.46,0.28-0.97,0.4-1.52,0.35c-0.29-0.03-0.53-0.12-0.71-0.28
		c-0.18-0.16-0.26-0.4-0.23-0.72c0-0.06,0.07-0.16,0.2-0.31s0.27-0.31,0.42-0.49s0.31-0.34,0.45-0.5c0.15-0.16,0.25-0.28,0.29-0.36
		c-0.02,0.17-0.04,0.33-0.07,0.5c-0.03,0.17-0.05,0.33-0.07,0.5c-0.01,0.1-0.02,0.23-0.02,0.39c-0.01,0.16,0,0.31,0.03,0.46
		c0.03,0.15,0.08,0.28,0.15,0.39s0.19,0.17,0.34,0.19c0.11,0.01,0.23,0,0.36-0.02S192.83,29.27,192.94,29.24z M195.52,28.25
		c-0.04,0.4,0.04,0.77,0.23,1.1c0.19,0.33,0.5,0.52,0.95,0.56l-3.81-0.36c0.44,0.04,0.79-0.09,1.03-0.38
		c0.24-0.29,0.38-0.64,0.42-1.04l0.45-5.09c0.03-0.32,0.08-0.58,0.15-0.77c0.07-0.2,0.17-0.37,0.29-0.51
		c0.12-0.14,0.26-0.28,0.42-0.42c0.16-0.14,0.34-0.31,0.54-0.52L195.52,28.25z"/>
	<path class="st13" d="M214.32,30.11c-0.07,0.47-0.05,0.87,0.06,1.19c0.11,0.33,0.44,0.52,0.99,0.59l-2.56,0.3l0.27-1.82
		c-0.53,0.51-1.15,0.88-1.88,1.1c-0.73,0.22-1.46,0.27-2.21,0.16c-0.76-0.11-1.41-0.35-1.95-0.72c-0.54-0.37-0.98-0.82-1.31-1.36
		c-0.33-0.54-0.55-1.15-0.65-1.82s-0.11-1.36,0-2.08c0.12-0.81,0.35-1.54,0.69-2.17c0.34-0.63,0.78-1.15,1.31-1.56
		c0.53-0.41,1.15-0.69,1.85-0.86c0.7-0.16,1.46-0.19,2.29-0.06c0.59,0.09,1.15,0.27,1.67,0.56s0.96,0.68,1.33,1.17l0.87-5.89
		c0.03-0.23,0-0.47-0.1-0.71c-0.1-0.24-0.29-0.38-0.56-0.42l2.03,0L214.32,30.11z M206.45,25.78c-0.09,0.59-0.1,1.2-0.05,1.82
		s0.2,1.19,0.43,1.72s0.57,0.98,1.01,1.36s1,0.62,1.68,0.72c0.67,0.1,1.33,0.02,1.97-0.25c0.64-0.26,1.18-0.65,1.64-1.14l1.02-6.9
		c-0.24-0.49-0.62-0.92-1.14-1.29c-0.52-0.37-1.05-0.6-1.59-0.68c-0.72-0.11-1.36-0.04-1.94,0.19c-0.58,0.23-1.07,0.57-1.49,1.02
		c-0.42,0.45-0.76,0.97-1.01,1.57S206.54,25.15,206.45,25.78z"/>
	<path class="st13" d="M218.84,31.33c-0.09,0.39-0.05,0.77,0.1,1.13c0.15,0.36,0.44,0.59,0.86,0.68l-3.76-0.81
		c0.44,0.09,0.79,0.01,1.07-0.26c0.28-0.27,0.46-0.6,0.54-0.99l1.59-7.42c0.05-0.23,0.04-0.47-0.04-0.71
		c-0.08-0.24-0.25-0.4-0.52-0.46l2.02,0.14l-0.42,1.94c0.2-0.31,0.44-0.58,0.74-0.79c0.29-0.21,0.62-0.38,0.96-0.49
		c0.34-0.11,0.7-0.17,1.07-0.19c0.37-0.01,0.72,0.02,1.06,0.09c0.37,0.08,0.72,0.21,1.05,0.38c0.33,0.17,0.63,0.38,0.9,0.63
		s0.47,0.54,0.62,0.87c0.15,0.33,0.22,0.7,0.22,1.09c0.17-0.35,0.41-0.63,0.7-0.86c0.29-0.23,0.61-0.41,0.97-0.54
		c0.36-0.13,0.73-0.2,1.12-0.22c0.39-0.02,0.76,0.01,1.11,0.09c0.37,0.08,0.73,0.21,1.1,0.41s0.69,0.43,0.97,0.72
		s0.49,0.62,0.63,0.98c0.14,0.37,0.17,0.76,0.08,1.18l-1.35,6.29c-0.08,0.4-0.06,0.77,0.08,1.13c0.14,0.36,0.42,0.58,0.86,0.68
		l-3.74-0.8c0.44,0.09,0.79,0.01,1.07-0.26c0.28-0.27,0.46-0.6,0.54-0.99l1.35-6.29c0.16-0.74,0.08-1.36-0.23-1.87
		c-0.31-0.51-0.84-0.84-1.59-1c-0.67-0.14-1.28-0.13-1.85,0.05c-0.57,0.18-1.06,0.54-1.5,1.09c-0.04,0.04-0.1,0.13-0.2,0.28
		c-0.1,0.15-0.15,0.24-0.15,0.27l-1.35,6.29c-0.08,0.4-0.05,0.77,0.1,1.13c0.15,0.36,0.44,0.58,0.86,0.68l-3.76-0.81
		c0.44,0.09,0.79,0.01,1.07-0.26c0.28-0.27,0.46-0.6,0.54-0.99l1.35-6.29c0.16-0.74,0.08-1.36-0.22-1.86c-0.3-0.51-0.83-0.84-1.58-1
		c-0.68-0.15-1.3-0.13-1.87,0.05s-1.06,0.54-1.47,1.09c-0.04,0.04-0.1,0.12-0.21,0.27c-0.1,0.14-0.16,0.23-0.17,0.27L218.84,31.33z"
		/>
	<path class="st13" d="M241.69,36.65c-0.57,0.55-1.26,0.87-2.06,0.97c-0.8,0.1-1.57,0.05-2.31-0.16c-0.43-0.12-0.83-0.28-1.19-0.49
		c-0.36-0.2-0.67-0.45-0.91-0.73c-0.25-0.29-0.41-0.62-0.49-1c-0.08-0.38-0.06-0.8,0.07-1.27c0.18-0.63,0.45-1.1,0.82-1.41
		c0.37-0.31,0.79-0.52,1.27-0.64c0.48-0.12,0.99-0.17,1.53-0.17c0.55,0.01,1.09,0.02,1.63,0.02c0.54,0.01,1.06-0.02,1.56-0.08
		c0.5-0.06,0.93-0.22,1.3-0.48c0.09-0.08,0.18-0.16,0.27-0.26c0.08-0.1,0.15-0.21,0.18-0.33c0.11-0.38,0.12-0.73,0.05-1.06
		c-0.07-0.33-0.21-0.63-0.42-0.91s-0.45-0.51-0.75-0.71c-0.29-0.2-0.61-0.35-0.96-0.44c-0.64-0.18-1.32-0.23-2.04-0.15
		c-0.72,0.08-1.32,0.38-1.81,0.89c0.12-0.01,0.23,0,0.34,0.03c0.21,0.06,0.38,0.19,0.49,0.4c0.11,0.2,0.14,0.41,0.08,0.61
		c-0.06,0.21-0.19,0.38-0.39,0.49c-0.2,0.11-0.4,0.14-0.62,0.08c-0.23-0.06-0.39-0.2-0.49-0.42c-0.1-0.21-0.12-0.44-0.05-0.67
		c0.01-0.04,0.04-0.11,0.1-0.21c0.26-0.35,0.56-0.63,0.92-0.84c0.36-0.21,0.74-0.36,1.15-0.45s0.83-0.12,1.26-0.1
		s0.84,0.08,1.23,0.19c0.4,0.11,0.81,0.29,1.23,0.53s0.78,0.53,1.09,0.87s0.54,0.72,0.68,1.13c0.14,0.42,0.15,0.87,0.01,1.35
		l-1.68,5.99c-0.03,0.11-0.06,0.23-0.1,0.37c-0.04,0.14-0.06,0.28-0.06,0.42c0,0.14,0.02,0.26,0.07,0.37
		c0.05,0.11,0.15,0.18,0.32,0.23c0.23,0.06,0.47,0.08,0.72,0.05c-0.5,0.19-1.01,0.21-1.54,0.07c-0.39-0.11-0.62-0.29-0.69-0.54
		c-0.07-0.25-0.06-0.56,0.04-0.92L241.69,36.65z M236.13,34.26c-0.19,0.68-0.16,1.32,0.11,1.9c0.26,0.58,0.75,0.97,1.46,1.17
		c0.43,0.12,0.87,0.17,1.32,0.16c0.45-0.01,0.88-0.08,1.27-0.21s0.74-0.31,1.04-0.56s0.49-0.54,0.59-0.89l1.34-4.77
		c-0.29,0.32-0.65,0.54-1.07,0.65c-0.42,0.11-0.87,0.18-1.34,0.21c-0.47,0.03-0.95,0.05-1.43,0.07c-0.48,0.02-0.94,0.09-1.37,0.21
		c-0.43,0.12-0.82,0.34-1.15,0.65C236.56,33.18,236.3,33.64,236.13,34.26z"/>
	<path class="st13" d="M254.06,40.22c-0.15,0.45-0.2,0.84-0.15,1.18c0.05,0.34,0.34,0.59,0.88,0.75l-2.57-0.14l0.57-1.75
		c-0.61,0.42-1.29,0.67-2.04,0.76c-0.75,0.09-1.49,0.02-2.2-0.22c-0.73-0.24-1.33-0.59-1.8-1.04c-0.47-0.46-0.83-0.98-1.06-1.57
		c-0.23-0.59-0.34-1.22-0.33-1.9c0.01-0.68,0.13-1.36,0.35-2.05c0.26-0.78,0.61-1.45,1.05-2.02c0.44-0.57,0.96-1,1.55-1.32
		c0.59-0.31,1.25-0.49,1.97-0.53c0.72-0.04,1.47,0.06,2.27,0.33c0.57,0.19,1.09,0.46,1.55,0.84c0.46,0.37,0.83,0.83,1.11,1.38
		l1.85-5.66c0.07-0.22,0.08-0.46,0.03-0.72c-0.06-0.25-0.22-0.42-0.48-0.51l2,0.35L254.06,40.22z M247.04,34.62
		c-0.19,0.57-0.3,1.16-0.35,1.79c-0.05,0.62,0,1.21,0.13,1.77c0.14,0.56,0.39,1.06,0.77,1.52c0.37,0.45,0.88,0.78,1.53,1
		c0.65,0.21,1.31,0.24,1.98,0.09c0.67-0.15,1.27-0.44,1.81-0.85l2.17-6.63c-0.15-0.52-0.45-1.01-0.91-1.46
		c-0.45-0.46-0.94-0.77-1.45-0.94c-0.69-0.23-1.34-0.27-1.94-0.14c-0.61,0.13-1.15,0.38-1.64,0.75c-0.49,0.37-0.91,0.83-1.26,1.38
		C247.52,33.43,247.24,34.01,247.04,34.62z"/>
	<path class="st13" d="M264.65,44.43c-0.52,0.42-1.15,0.67-1.87,0.78s-1.55-0.01-2.47-0.36c-0.73-0.27-1.34-0.65-1.81-1.15
		s-0.83-1.05-1.07-1.68c-0.24-0.62-0.35-1.29-0.34-2c0.01-0.71,0.14-1.41,0.4-2.1c0.25-0.67,0.58-1.27,1-1.81s0.91-0.97,1.46-1.3
		c0.55-0.32,1.15-0.52,1.81-0.6c0.66-0.08,1.35,0.02,2.07,0.29c0.56,0.21,1.06,0.5,1.5,0.86c0.44,0.37,0.78,0.79,1.04,1.26
		c0.26,0.47,0.41,0.99,0.45,1.55c0.05,0.56-0.04,1.13-0.25,1.7l-7.29-2.69c-0.23,0.38-0.42,0.77-0.57,1.17
		c-0.22,0.59-0.35,1.2-0.39,1.84c-0.04,0.64,0.02,1.25,0.18,1.84c0.16,0.59,0.44,1.11,0.83,1.58c0.39,0.46,0.92,0.82,1.57,1.06
		c0.67,0.25,1.31,0.35,1.94,0.3s1.21-0.25,1.77-0.63L264.65,44.43z M264.12,35.06c-0.47-0.17-0.93-0.24-1.39-0.2
		s-0.89,0.15-1.31,0.34c-0.42,0.19-0.8,0.44-1.15,0.76c-0.35,0.32-0.65,0.67-0.92,1.06l6.02,2.22c0.22,0.08,0.44,0.1,0.66,0.06
		c0.21-0.04,0.37-0.19,0.47-0.45c0.14-0.38,0.16-0.77,0.05-1.17c-0.1-0.4-0.28-0.78-0.53-1.12c-0.25-0.34-0.55-0.65-0.89-0.92
		C264.8,35.38,264.46,35.18,264.12,35.06z"/>
	<path class="st13" d="M279.33,56.24c-0.28,0.68-0.69,1.22-1.22,1.61c-0.53,0.39-1.12,0.66-1.76,0.8c-0.64,0.14-1.3,0.17-1.99,0.09
		c-0.69-0.08-1.34-0.25-1.94-0.5c-0.57-0.23-1.13-0.55-1.69-0.95c-0.56-0.4-1.03-0.86-1.41-1.38c-0.38-0.52-0.64-1.09-0.78-1.7
		c-0.14-0.62-0.06-1.26,0.22-1.95c0.22-0.54,0.57-0.98,1.03-1.33s0.97-0.56,1.53-0.64l0.02,0.05c-0.52,0.46-0.93,1.05-1.22,1.75
		c-0.27,0.66-0.4,1.29-0.39,1.9c0.01,0.61,0.14,1.17,0.39,1.69c0.25,0.52,0.6,0.98,1.06,1.4c0.46,0.42,1.01,0.76,1.64,1.02
		c0.48,0.2,0.99,0.33,1.54,0.4c0.55,0.07,1.09,0.06,1.61-0.04c0.52-0.1,1-0.3,1.43-0.59c0.43-0.3,0.76-0.72,0.99-1.27
		c0.04-0.09,0.07-0.18,0.1-0.27c0.03-0.09,0.05-0.19,0.06-0.29c0.11-0.86-0.01-1.58-0.37-2.17c-0.36-0.59-0.83-1.09-1.42-1.52
		s-1.23-0.79-1.93-1.1c-0.7-0.31-1.33-0.62-1.88-0.93s-0.97-0.64-1.27-1.01c-0.29-0.37-0.33-0.83-0.1-1.37
		c0.2-0.49,0.54-0.84,1.01-1.04c0.47-0.2,0.95-0.31,1.43-0.32c-0.49-0.6-0.8-1.24-0.92-1.92s-0.04-1.39,0.26-2.11
		c0.26-0.62,0.61-1.11,1.05-1.47c0.45-0.37,0.94-0.62,1.48-0.76c0.54-0.14,1.11-0.19,1.71-0.13c0.6,0.06,1.18,0.21,1.75,0.44
		c0.37,0.16,0.76,0.3,1.15,0.44c0.39,0.14,0.8,0.26,1.21,0.35c0.41,0.1,0.83,0.15,1.24,0.17c0.41,0.02,0.82-0.01,1.22-0.1
		c-0.23-0.1-0.41-0.24-0.53-0.44s-0.13-0.42-0.02-0.68c0.09-0.21,0.23-0.36,0.45-0.45s0.42-0.1,0.63-0.01
		c0.22,0.09,0.37,0.24,0.45,0.45c0.08,0.21,0.08,0.42-0.02,0.64c-0.13,0.31-0.4,0.51-0.81,0.61c-0.41,0.09-0.85,0.13-1.33,0.1
		s-0.95-0.09-1.41-0.19c-0.46-0.1-0.82-0.19-1.06-0.26c0.42,0.29,0.78,0.63,1.09,1c0.3,0.38,0.54,0.78,0.7,1.21
		c0.16,0.43,0.24,0.88,0.24,1.35s-0.1,0.96-0.3,1.45c-0.26,0.62-0.61,1.11-1.05,1.47c-0.44,0.36-0.94,0.61-1.49,0.75
		c-0.55,0.14-1.12,0.18-1.72,0.11s-1.18-0.22-1.75-0.45c-0.37-0.16-0.74-0.35-1.08-0.57c-0.35-0.23-0.67-0.49-0.95-0.79
		c-0.35-0.03-0.67,0.04-0.97,0.19c-0.3,0.15-0.51,0.4-0.66,0.74c-0.17,0.41-0.09,0.76,0.23,1.06c0.32,0.29,0.77,0.58,1.35,0.85
		c0.58,0.28,1.22,0.57,1.92,0.89c0.7,0.31,1.33,0.7,1.9,1.15c0.57,0.45,1.01,1.01,1.33,1.66c0.32,0.65,0.38,1.45,0.18,2.39
		c-0.01,0.1-0.03,0.19-0.07,0.27S279.36,56.15,279.33,56.24z M274.69,43.1c-0.19,0.46-0.31,0.94-0.36,1.43
		c-0.05,0.49-0.01,0.97,0.11,1.42s0.34,0.86,0.65,1.22c0.31,0.36,0.72,0.65,1.22,0.85c0.51,0.21,1.01,0.3,1.49,0.27
		c0.47-0.04,0.92-0.17,1.32-0.4c0.4-0.23,0.77-0.54,1.08-0.92c0.32-0.38,0.57-0.8,0.76-1.27c0.2-0.48,0.32-0.96,0.37-1.46
		c0.05-0.49,0.01-0.96-0.12-1.41c-0.12-0.44-0.34-0.85-0.65-1.21c-0.31-0.36-0.72-0.65-1.24-0.86c-0.5-0.21-0.99-0.29-1.46-0.26
		c-0.48,0.04-0.92,0.17-1.32,0.4c-0.41,0.23-0.77,0.54-1.08,0.92C275.13,42.21,274.88,42.64,274.69,43.1z"/>
	<path class="st13" d="M299.54,55.24c-0.31,0.71-0.72,1.32-1.22,1.82c-0.5,0.5-1.07,0.88-1.69,1.13s-1.29,0.36-2,0.34
		s-1.42-0.19-2.13-0.5c-0.57-0.25-1.09-0.58-1.55-0.97c-0.46-0.39-0.83-0.87-1.12-1.42c-0.58,0.15-1.18,0.2-1.78,0.13
		s-1.18-0.22-1.72-0.46c-0.73-0.32-1.33-0.73-1.82-1.23c-0.49-0.5-0.85-1.07-1.09-1.7c-0.24-0.63-0.34-1.3-0.31-2.01
		c0.03-0.71,0.2-1.42,0.52-2.13c0.31-0.71,0.72-1.32,1.22-1.81c0.5-0.5,1.06-0.87,1.69-1.12s1.29-0.37,1.99-0.36
		c0.7,0.01,1.42,0.18,2.14,0.5c0.56,0.25,1.07,0.57,1.53,0.96s0.83,0.87,1.12,1.42c0.6-0.15,1.19-0.19,1.79-0.12
		s1.17,0.22,1.74,0.47c0.71,0.31,1.32,0.73,1.81,1.24c0.49,0.51,0.85,1.08,1.09,1.71c0.24,0.63,0.35,1.3,0.32,2
		C300.03,53.81,299.86,54.52,299.54,55.24z M284.76,48.73c-0.25,0.56-0.42,1.16-0.52,1.79c-0.1,0.63-0.1,1.25,0,1.84
		c0.1,0.59,0.32,1.14,0.66,1.64c0.34,0.5,0.83,0.89,1.48,1.18c0.65,0.29,1.27,0.39,1.87,0.31s1.14-0.28,1.64-0.6
		c0.49-0.32,0.93-0.74,1.32-1.24c0.39-0.51,0.71-1.04,0.96-1.62c0.38-0.85,0.59-1.72,0.64-2.59c0.25-0.29,0.55-0.49,0.91-0.61
		c0.14,0.61,0.19,1.24,0.13,1.87s-0.21,1.24-0.46,1.82c-0.29,0.65-0.68,1.23-1.19,1.75c-0.51,0.51-1.09,0.9-1.73,1.17
		c0.29,1.17,0.99,1.99,2.09,2.47c0.64,0.28,1.25,0.38,1.85,0.29c0.59-0.09,1.15-0.29,1.65-0.62s0.96-0.74,1.36-1.24
		c0.4-0.5,0.72-1.03,0.96-1.6c0.25-0.56,0.42-1.16,0.53-1.8c0.11-0.64,0.11-1.25,0-1.85c-0.1-0.59-0.32-1.14-0.66-1.64
		c-0.34-0.5-0.82-0.89-1.46-1.17c-0.66-0.29-1.29-0.4-1.88-0.31s-1.14,0.29-1.64,0.61c-0.5,0.33-0.95,0.75-1.34,1.26
		c-0.39,0.51-0.72,1.06-0.97,1.63c-0.18,0.41-0.33,0.83-0.44,1.26c-0.11,0.43-0.17,0.86-0.18,1.3c-0.26,0.28-0.56,0.49-0.89,0.61
		c-0.16-0.62-0.21-1.24-0.15-1.88s0.21-1.24,0.46-1.82c0.29-0.65,0.68-1.23,1.19-1.74c0.51-0.51,1.08-0.89,1.73-1.16
		c-0.13-0.56-0.38-1.06-0.73-1.48c-0.35-0.43-0.8-0.76-1.33-1c-0.65-0.29-1.27-0.38-1.87-0.3c-0.59,0.09-1.15,0.29-1.65,0.62
		c-0.51,0.32-0.96,0.74-1.36,1.25C285.33,47.64,285.01,48.17,284.76,48.73z"/>
	<path class="st13" d="M308.07,62.64c-0.2,0.43-0.29,0.82-0.27,1.16c0.01,0.34,0.28,0.62,0.79,0.84l-2.54-0.42l0.76-1.67
		c-0.65,0.35-1.35,0.53-2.11,0.54s-1.48-0.14-2.17-0.45c-0.7-0.32-1.26-0.72-1.68-1.23s-0.72-1.06-0.88-1.67
		c-0.17-0.61-0.21-1.25-0.13-1.93c0.08-0.67,0.27-1.34,0.57-2c0.34-0.75,0.76-1.38,1.26-1.9s1.06-0.9,1.69-1.14
		c0.62-0.25,1.29-0.35,2.01-0.32c0.72,0.04,1.46,0.22,2.22,0.57c0.54,0.25,1.03,0.58,1.45,1c0.42,0.42,0.74,0.92,0.96,1.49
		l2.45-5.43c0.1-0.21,0.13-0.45,0.1-0.71c-0.03-0.26-0.17-0.44-0.42-0.56l1.95,0.56L308.07,62.64z M301.69,56.32
		c-0.25,0.55-0.43,1.12-0.54,1.74s-0.13,1.2-0.06,1.77s0.28,1.1,0.6,1.59c0.32,0.49,0.79,0.87,1.42,1.16
		c0.62,0.28,1.28,0.38,1.96,0.3s1.31-0.3,1.89-0.65l2.87-6.36c-0.1-0.53-0.34-1.05-0.74-1.55c-0.4-0.5-0.85-0.87-1.34-1.09
		c-0.66-0.3-1.3-0.42-1.92-0.35c-0.62,0.06-1.19,0.25-1.71,0.57c-0.52,0.31-0.99,0.72-1.41,1.23
		C302.29,55.19,301.95,55.73,301.69,56.32z"/>
	<path class="st13" d="M317.59,66.06c-0.23,0.51-0.54,0.89-0.93,1.14c-0.39,0.25-0.81,0.41-1.27,0.47
		c-0.46,0.07-0.93,0.05-1.42-0.05c-0.49-0.1-0.95-0.25-1.38-0.45c-0.68-0.31-1.32-0.74-1.9-1.28c-0.58-0.54-1.02-1.17-1.32-1.89
		l0.17-0.06c0.32,0.68,0.74,1.28,1.27,1.8s1.14,0.93,1.82,1.25c0.32,0.14,0.66,0.25,1.04,0.32s0.74,0.08,1.1,0.03
		c0.36-0.05,0.69-0.17,1-0.36c0.31-0.19,0.55-0.47,0.71-0.83c0.22-0.48,0.21-0.97-0.04-1.48c-0.25-0.5-0.58-0.99-1.02-1.46
		c-0.43-0.47-0.89-0.92-1.38-1.34c-0.48-0.42-0.86-0.78-1.13-1.09c-0.33-0.38-0.56-0.79-0.67-1.24s-0.07-0.91,0.15-1.39
		c0.21-0.46,0.49-0.79,0.84-1.02c0.35-0.22,0.74-0.36,1.15-0.41c0.41-0.05,0.84-0.03,1.28,0.07c0.44,0.09,0.85,0.23,1.23,0.4
		c0.59,0.27,1.15,0.63,1.68,1.08c0.52,0.45,0.91,0.97,1.17,1.58c0.04,0.14,0.06,0.25,0.04,0.33s-0.05,0.17-0.1,0.29
		c-0.1,0.22-0.25,0.36-0.45,0.44c-0.2,0.08-0.41,0.06-0.63-0.03c-0.2-0.09-0.35-0.24-0.43-0.45s-0.07-0.42,0.02-0.63
		c0.09-0.2,0.25-0.34,0.46-0.42c0.21-0.08,0.42-0.07,0.62,0.02c-0.28-0.46-0.64-0.87-1.08-1.21c-0.44-0.34-0.93-0.63-1.46-0.87
		c-0.25-0.12-0.54-0.2-0.86-0.25c-0.32-0.05-0.64-0.06-0.95-0.02s-0.61,0.14-0.87,0.29c-0.26,0.16-0.46,0.39-0.6,0.69
		c-0.19,0.42-0.19,0.83,0.01,1.22s0.5,0.8,0.9,1.2c0.4,0.4,0.84,0.82,1.32,1.23c0.48,0.42,0.91,0.86,1.28,1.32
		c0.37,0.46,0.63,0.94,0.79,1.45C317.91,64.95,317.85,65.49,317.59,66.06z"/>
	<path class="st13" d="M319.08,69.35c-0.08,0.16-0.18,0.33-0.32,0.5c-0.14,0.17-0.3,0.31-0.47,0.44c-0.17,0.13-0.36,0.22-0.56,0.28
		c-0.2,0.06-0.39,0.07-0.59,0.03c0.31-0.01,0.6-0.12,0.87-0.33c0.27-0.21,0.46-0.45,0.59-0.72l0.04-0.09
		c-0.21,0.12-0.44,0.12-0.69,0c-0.2-0.09-0.35-0.24-0.44-0.44c-0.09-0.2-0.09-0.4,0.01-0.62c0.11-0.24,0.28-0.4,0.5-0.47
		c0.22-0.07,0.45-0.06,0.69,0.06c0.29,0.14,0.46,0.33,0.5,0.59S319.2,69.09,319.08,69.35z"/>
	<path class="st13" d="M333.85,73.87c-0.25,0.5-0.57,0.87-0.97,1.11c-0.4,0.24-0.83,0.38-1.29,0.44c-0.46,0.05-0.93,0.02-1.42-0.1
		c-0.49-0.12-0.94-0.28-1.37-0.49c-0.67-0.33-1.29-0.78-1.86-1.34s-0.98-1.2-1.26-1.93l0.17-0.06c0.3,0.69,0.7,1.3,1.21,1.83
		s1.11,0.97,1.78,1.3c0.31,0.15,0.65,0.27,1.03,0.35c0.37,0.08,0.74,0.1,1.1,0.06s0.7-0.15,1.01-0.33c0.31-0.18,0.56-0.45,0.74-0.81
		c0.23-0.47,0.24-0.97,0.01-1.48c-0.23-0.51-0.55-1.01-0.97-1.49c-0.42-0.49-0.86-0.95-1.33-1.38s-0.83-0.81-1.1-1.12
		c-0.32-0.39-0.53-0.81-0.64-1.26c-0.11-0.45-0.04-0.91,0.19-1.38c0.22-0.45,0.51-0.78,0.87-0.99c0.36-0.21,0.75-0.33,1.16-0.37
		c0.41-0.04,0.84,0,1.28,0.11c0.44,0.11,0.84,0.25,1.22,0.44c0.59,0.29,1.14,0.67,1.65,1.13c0.51,0.46,0.88,1,1.12,1.62
		c0.04,0.14,0.05,0.25,0.03,0.33c-0.01,0.08-0.05,0.17-0.11,0.29c-0.11,0.21-0.26,0.35-0.46,0.42c-0.21,0.07-0.41,0.05-0.63-0.05
		c-0.2-0.1-0.34-0.25-0.41-0.46c-0.08-0.21-0.06-0.42,0.04-0.63c0.1-0.2,0.25-0.34,0.47-0.41c0.21-0.07,0.42-0.06,0.62,0.04
		c-0.26-0.47-0.61-0.88-1.04-1.24s-0.91-0.66-1.43-0.92c-0.25-0.12-0.53-0.22-0.85-0.28c-0.32-0.06-0.64-0.08-0.95-0.05
		c-0.32,0.03-0.61,0.12-0.88,0.27s-0.47,0.37-0.62,0.67c-0.2,0.41-0.21,0.82-0.02,1.22c0.19,0.4,0.48,0.81,0.86,1.23
		c0.39,0.42,0.81,0.84,1.28,1.27s0.88,0.89,1.24,1.36s0.6,0.96,0.74,1.47C334.2,72.77,334.13,73.3,333.85,73.87z"/>
	<path class="st13" d="M336.58,76.77c-0.18,0.36-0.25,0.73-0.19,1.11c0.06,0.38,0.28,0.67,0.66,0.86l-3.41-1.73
		c0.4,0.2,0.76,0.21,1.1,0.03c0.33-0.18,0.59-0.45,0.78-0.81l3.44-6.76c0.11-0.21,0.15-0.45,0.14-0.71
		c-0.02-0.26-0.15-0.45-0.4-0.58l1.92,0.65L336.58,76.77z M341.69,67.18c-0.1,0.2-0.26,0.33-0.47,0.4
		c-0.22,0.07-0.42,0.05-0.62-0.05c-0.19-0.09-0.32-0.25-0.39-0.47c-0.08-0.22-0.06-0.43,0.04-0.62c0.1-0.2,0.26-0.34,0.48-0.41
		s0.43-0.06,0.63,0.04c0.21,0.11,0.35,0.27,0.41,0.49C341.81,66.78,341.79,66.98,341.69,67.18z"/>
	<path class="st13" d="M345.74,87.47c-0.34,0.65-0.79,1.15-1.36,1.5s-1.17,0.56-1.82,0.64c-0.65,0.08-1.31,0.06-1.99-0.08
		c-0.68-0.14-1.31-0.37-1.89-0.67c-0.54-0.28-1.08-0.65-1.6-1.09c-0.52-0.45-0.95-0.94-1.28-1.49c-0.33-0.55-0.54-1.14-0.62-1.76
		c-0.08-0.62,0.05-1.26,0.39-1.92c0.27-0.52,0.65-0.93,1.14-1.23c0.49-0.3,1.02-0.47,1.58-0.51l0.02,0.06
		c-0.56,0.41-1.02,0.96-1.37,1.64c-0.33,0.63-0.51,1.25-0.55,1.86c-0.04,0.61,0.04,1.18,0.24,1.71c0.2,0.54,0.51,1.03,0.93,1.49
		c0.42,0.46,0.94,0.84,1.54,1.16c0.46,0.24,0.96,0.42,1.5,0.53s1.08,0.15,1.61,0.1c0.53-0.05,1.02-0.21,1.48-0.47
		c0.46-0.26,0.82-0.65,1.1-1.18c0.04-0.09,0.09-0.17,0.13-0.26s0.07-0.18,0.09-0.28c0.19-0.84,0.13-1.57-0.18-2.19
		c-0.31-0.62-0.73-1.16-1.28-1.63c-0.55-0.47-1.16-0.9-1.82-1.27c-0.67-0.37-1.27-0.73-1.79-1.09s-0.92-0.72-1.17-1.12
		s-0.25-0.85,0.02-1.37c0.25-0.47,0.61-0.79,1.1-0.95c0.49-0.16,0.97-0.23,1.46-0.19c-0.44-0.64-0.69-1.3-0.75-1.99
		c-0.06-0.69,0.08-1.38,0.45-2.08c0.31-0.59,0.7-1.05,1.18-1.38c0.48-0.33,0.99-0.54,1.54-0.63c0.55-0.1,1.12-0.09,1.72,0.02
		c0.59,0.11,1.16,0.31,1.71,0.59c0.36,0.19,0.73,0.37,1.11,0.54c0.38,0.17,0.77,0.33,1.17,0.46c0.4,0.13,0.81,0.23,1.22,0.28
		s0.82,0.06,1.22,0c-0.22-0.12-0.39-0.28-0.49-0.48c-0.11-0.2-0.09-0.43,0.03-0.68c0.1-0.2,0.26-0.33,0.48-0.41
		c0.22-0.07,0.43-0.06,0.63,0.04c0.21,0.11,0.35,0.27,0.41,0.48s0.04,0.42-0.07,0.63c-0.15,0.3-0.44,0.47-0.85,0.53
		c-0.42,0.06-0.86,0.05-1.34-0.01c-0.48-0.07-0.94-0.17-1.39-0.31c-0.45-0.14-0.8-0.26-1.03-0.35c0.39,0.33,0.73,0.7,1,1.1
		s0.47,0.82,0.59,1.26c0.12,0.44,0.16,0.9,0.12,1.37s-0.19,0.94-0.43,1.41c-0.31,0.59-0.7,1.05-1.17,1.37
		c-0.47,0.32-0.99,0.52-1.55,0.62c-0.56,0.09-1.13,0.08-1.72-0.04c-0.59-0.12-1.16-0.32-1.7-0.6c-0.36-0.19-0.7-0.41-1.03-0.67
		s-0.62-0.55-0.88-0.87c-0.35-0.06-0.67-0.02-0.98,0.1c-0.31,0.12-0.55,0.35-0.72,0.68c-0.21,0.4-0.16,0.75,0.14,1.07
		s0.72,0.64,1.27,0.97c0.55,0.33,1.16,0.68,1.83,1.05c0.67,0.37,1.27,0.81,1.79,1.31s0.92,1.09,1.18,1.77
		c0.26,0.68,0.25,1.48-0.03,2.4c-0.02,0.1-0.05,0.19-0.09,0.26C345.83,87.3,345.78,87.38,345.74,87.47z M342.27,73.97
		c-0.23,0.45-0.39,0.91-0.48,1.4c-0.09,0.49-0.09,0.96-0.01,1.42c0.08,0.46,0.26,0.88,0.54,1.27c0.28,0.39,0.66,0.71,1.14,0.96
		c0.49,0.26,0.98,0.39,1.46,0.39c0.48,0,0.93-0.09,1.35-0.29s0.81-0.47,1.16-0.82c0.35-0.35,0.64-0.75,0.87-1.2
		c0.24-0.46,0.4-0.93,0.49-1.42c0.09-0.49,0.09-0.96,0.01-1.41c-0.09-0.45-0.27-0.87-0.54-1.26c-0.28-0.39-0.66-0.71-1.16-0.97
		c-0.48-0.25-0.96-0.38-1.44-0.38c-0.48,0-0.93,0.09-1.35,0.29c-0.42,0.2-0.81,0.47-1.16,0.82
		C342.79,73.13,342.5,73.53,342.27,73.97z"/>
	<path class="st13" d="M350.86,84.18c-0.18,0.35-0.25,0.71-0.2,1.09c0.04,0.38,0.26,0.68,0.66,0.88l-3.39-1.76
		c0.38,0.2,0.75,0.21,1.09,0.03s0.61-0.44,0.79-0.79l3.5-6.73c0.12-0.22,0.17-0.46,0.15-0.72s-0.15-0.45-0.4-0.56l1.91,0.67
		l-0.59,1.13c0.63-0.22,1.29-0.28,1.97-0.19s1.32,0.3,1.91,0.61c0.38,0.2,0.75,0.45,1.09,0.75c0.34,0.3,0.62,0.64,0.83,1.01
		c0.21,0.37,0.33,0.77,0.37,1.19c0.04,0.43-0.06,0.86-0.29,1.31l-2.85,5.49c-0.18,0.35-0.25,0.71-0.2,1.09s0.26,0.68,0.66,0.88
		l-3.39-1.76c0.38,0.2,0.75,0.21,1.09,0.03c0.35-0.18,0.61-0.45,0.79-0.79l2.9-5.58c0.39-0.75,0.46-1.45,0.2-2.08
		c-0.26-0.63-0.76-1.13-1.49-1.51c-0.27-0.14-0.58-0.26-0.91-0.36s-0.67-0.15-1.02-0.17c-0.34-0.02-0.68,0-1.01,0.08
		s-0.62,0.21-0.86,0.41L350.86,84.18z"/>
	<path class="st13" d="M366.12,91.63c-0.66,0.44-1.39,0.65-2.2,0.61c-0.81-0.04-1.56-0.22-2.25-0.55c-0.4-0.19-0.77-0.42-1.09-0.68
		c-0.32-0.26-0.58-0.55-0.78-0.88c-0.19-0.32-0.3-0.68-0.32-1.06c-0.02-0.39,0.08-0.8,0.29-1.24c0.28-0.59,0.63-1.01,1.04-1.25
		c0.42-0.24,0.87-0.38,1.36-0.42s1-0.01,1.54,0.09s1.07,0.2,1.6,0.3c0.53,0.1,1.05,0.16,1.56,0.18c0.5,0.02,0.96-0.06,1.36-0.26
		c0.1-0.06,0.21-0.13,0.31-0.21c0.1-0.08,0.18-0.18,0.23-0.29c0.17-0.35,0.24-0.7,0.23-1.04s-0.1-0.66-0.26-0.97
		c-0.16-0.3-0.36-0.58-0.62-0.82c-0.25-0.24-0.54-0.44-0.87-0.6c-0.6-0.29-1.27-0.45-1.99-0.49s-1.37,0.15-1.94,0.57
		c0.12,0.01,0.23,0.04,0.33,0.09c0.2,0.1,0.34,0.25,0.41,0.47c0.07,0.22,0.06,0.42-0.02,0.61c-0.1,0.2-0.25,0.34-0.46,0.42
		s-0.42,0.07-0.62-0.03c-0.21-0.1-0.35-0.27-0.41-0.5c-0.06-0.23-0.04-0.45,0.06-0.67c0.02-0.04,0.06-0.1,0.14-0.19
		c0.31-0.3,0.66-0.52,1.05-0.67c0.39-0.15,0.79-0.23,1.21-0.25c0.42-0.02,0.83,0.02,1.25,0.11c0.42,0.09,0.81,0.22,1.18,0.4
		c0.38,0.18,0.75,0.42,1.12,0.73s0.68,0.65,0.93,1.04c0.25,0.39,0.41,0.8,0.48,1.23s0,0.88-0.21,1.33l-2.67,5.63
		c-0.05,0.1-0.1,0.22-0.17,0.35c-0.06,0.13-0.11,0.27-0.13,0.4s-0.02,0.26,0.01,0.37c0.03,0.11,0.12,0.21,0.27,0.28
		c0.21,0.1,0.45,0.16,0.7,0.17c-0.53,0.1-1.04,0.04-1.53-0.19c-0.37-0.17-0.56-0.39-0.59-0.65c-0.03-0.26,0.04-0.56,0.2-0.9
		L366.12,91.63z M361.04,88.34c-0.3,0.64-0.38,1.27-0.21,1.89c0.16,0.62,0.58,1.08,1.25,1.4c0.4,0.19,0.83,0.32,1.27,0.38
		c0.45,0.07,0.88,0.07,1.29,0.01c0.41-0.06,0.78-0.18,1.11-0.37c0.33-0.19,0.57-0.45,0.73-0.78l2.12-4.47
		c-0.34,0.27-0.73,0.42-1.17,0.46s-0.89,0.03-1.36-0.02c-0.47-0.05-0.94-0.11-1.42-0.17c-0.48-0.07-0.94-0.07-1.39-0.02
		c-0.45,0.05-0.86,0.2-1.24,0.45C361.64,87.35,361.31,87.77,361.04,88.34z"/>
	<path class="st13" d="M377.74,102.27c-0.26,0.69-0.65,1.24-1.17,1.65c-0.52,0.41-1.1,0.69-1.73,0.85c-0.63,0.16-1.3,0.21-1.99,0.15
		c-0.69-0.06-1.34-0.21-1.96-0.44c-0.57-0.22-1.14-0.52-1.72-0.9s-1.05-0.82-1.45-1.33c-0.4-0.51-0.67-1.07-0.83-1.68
		s-0.1-1.26,0.16-1.95c0.21-0.55,0.54-1,0.98-1.36c0.45-0.36,0.95-0.59,1.51-0.69l0.02,0.05c-0.51,0.48-0.9,1.07-1.17,1.79
		c-0.25,0.66-0.36,1.3-0.33,1.91c0.03,0.61,0.18,1.17,0.44,1.67s0.63,0.96,1.1,1.37c0.47,0.4,1.03,0.72,1.67,0.97
		c0.48,0.18,1,0.3,1.55,0.35c0.55,0.05,1.09,0.02,1.61-0.09c0.52-0.12,0.99-0.33,1.41-0.64c0.42-0.31,0.74-0.74,0.95-1.3
		c0.03-0.09,0.07-0.18,0.09-0.28c0.03-0.09,0.05-0.19,0.05-0.29c0.09-0.86-0.06-1.58-0.44-2.15c-0.38-0.58-0.87-1.07-1.46-1.47
		s-1.25-0.75-1.96-1.04c-0.71-0.29-1.34-0.58-1.91-0.87c-0.56-0.29-0.99-0.61-1.3-0.97s-0.35-0.81-0.14-1.36
		c0.19-0.5,0.51-0.85,0.98-1.07s0.94-0.34,1.42-0.37c-0.51-0.58-0.84-1.21-0.98-1.89c-0.14-0.68-0.08-1.38,0.2-2.11
		c0.24-0.63,0.57-1.13,1.01-1.51c0.43-0.38,0.92-0.65,1.46-0.81c0.54-0.16,1.11-0.22,1.71-0.18c0.6,0.04,1.19,0.17,1.76,0.39
		c0.38,0.14,0.77,0.28,1.16,0.41c0.4,0.13,0.8,0.23,1.22,0.32c0.42,0.08,0.83,0.13,1.24,0.14s0.82-0.04,1.22-0.14
		c-0.23-0.09-0.42-0.23-0.54-0.42s-0.14-0.42-0.05-0.68c0.08-0.21,0.22-0.36,0.43-0.46s0.42-0.11,0.63-0.03
		c0.22,0.08,0.38,0.23,0.46,0.43c0.09,0.2,0.09,0.42,0,0.64c-0.12,0.31-0.38,0.52-0.79,0.63c-0.41,0.11-0.85,0.16-1.33,0.14
		c-0.48-0.01-0.95-0.06-1.42-0.15c-0.47-0.09-0.82-0.16-1.07-0.22c0.43,0.28,0.8,0.61,1.12,0.97c0.32,0.37,0.56,0.76,0.74,1.18
		s0.27,0.87,0.28,1.35s-0.07,0.96-0.26,1.45c-0.24,0.63-0.57,1.12-1,1.5c-0.43,0.37-0.92,0.64-1.46,0.8
		c-0.54,0.16-1.12,0.21-1.72,0.17c-0.6-0.05-1.19-0.18-1.76-0.4c-0.38-0.14-0.75-0.32-1.1-0.54c-0.36-0.22-0.68-0.47-0.97-0.76
		c-0.35-0.01-0.67,0.06-0.96,0.22c-0.29,0.16-0.5,0.41-0.64,0.76c-0.16,0.42-0.07,0.77,0.26,1.05c0.33,0.28,0.79,0.55,1.38,0.81
		s1.23,0.53,1.94,0.83s1.35,0.65,1.93,1.09s1.04,0.97,1.38,1.62c0.34,0.64,0.42,1.44,0.26,2.39c-0.01,0.1-0.03,0.19-0.06,0.27
		C377.81,102.09,377.77,102.17,377.74,102.27z M372.7,89.28c-0.18,0.47-0.28,0.95-0.31,1.45c-0.03,0.49,0.02,0.96,0.16,1.41
		c0.14,0.45,0.37,0.85,0.69,1.2c0.32,0.35,0.73,0.62,1.24,0.82c0.52,0.2,1.02,0.27,1.49,0.22c0.47-0.05,0.91-0.2,1.31-0.44
		s0.75-0.56,1.05-0.95c0.3-0.39,0.54-0.82,0.72-1.29c0.18-0.48,0.29-0.97,0.32-1.46c0.03-0.49-0.02-0.96-0.16-1.4
		c-0.14-0.44-0.37-0.84-0.69-1.19c-0.32-0.35-0.74-0.63-1.26-0.82c-0.51-0.19-1-0.26-1.47-0.21c-0.47,0.05-0.91,0.2-1.31,0.44
		c-0.4,0.24-0.75,0.56-1.05,0.95S372.87,88.81,372.7,89.28z"/>
	<path class="st13" d="M389.22,99.9c-0.49,0.46-1.09,0.76-1.8,0.93c-0.71,0.16-1.54,0.11-2.5-0.16c-0.75-0.21-1.38-0.54-1.9-1
		c-0.52-0.46-0.92-0.98-1.2-1.59s-0.45-1.26-0.5-1.96c-0.05-0.71,0.03-1.42,0.23-2.13c0.19-0.68,0.48-1.31,0.86-1.89
		c0.38-0.57,0.83-1.04,1.35-1.41c0.52-0.37,1.11-0.62,1.76-0.74c0.65-0.13,1.34-0.09,2.08,0.12c0.58,0.16,1.1,0.41,1.56,0.74
		c0.46,0.33,0.84,0.72,1.13,1.18c0.29,0.45,0.49,0.95,0.58,1.51c0.09,0.55,0.05,1.12-0.11,1.71l-7.48-2.1
		c-0.2,0.39-0.35,0.8-0.47,1.21c-0.17,0.6-0.25,1.23-0.24,1.86s0.12,1.24,0.33,1.82c0.21,0.57,0.53,1.07,0.96,1.5
		s0.98,0.74,1.65,0.93c0.68,0.19,1.33,0.24,1.96,0.15c0.62-0.09,1.19-0.35,1.71-0.77L389.22,99.9z M387.95,90.6
		c-0.48-0.14-0.95-0.17-1.4-0.09c-0.45,0.08-0.87,0.22-1.27,0.45c-0.4,0.22-0.76,0.5-1.08,0.85c-0.32,0.34-0.6,0.72-0.83,1.13
		l6.18,1.73c0.23,0.06,0.45,0.07,0.66,0.01c0.21-0.06,0.35-0.22,0.43-0.49c0.11-0.39,0.09-0.78-0.04-1.17s-0.34-0.75-0.62-1.07
		c-0.28-0.32-0.6-0.61-0.96-0.84C388.65,90.87,388.29,90.7,387.95,90.6z"/>
	<path class="st13" d="M392.98,101.96c-0.04,0.18-0.11,0.36-0.21,0.55c-0.1,0.19-0.22,0.37-0.37,0.53
		c-0.14,0.16-0.31,0.29-0.49,0.39c-0.18,0.1-0.37,0.15-0.57,0.15c0.3-0.07,0.56-0.24,0.78-0.51c0.22-0.26,0.36-0.54,0.42-0.83
		l0.02-0.1c-0.18,0.16-0.4,0.21-0.68,0.15c-0.22-0.05-0.39-0.16-0.52-0.33c-0.13-0.17-0.17-0.37-0.12-0.61
		c0.06-0.26,0.19-0.45,0.39-0.57c0.2-0.12,0.43-0.15,0.68-0.09c0.31,0.07,0.52,0.23,0.61,0.47S393.04,101.68,392.98,101.96z"/>
	<path class="st13" d="M402.84,102.91c-0.07,0.4-0.03,0.77,0.12,1.11s0.45,0.56,0.89,0.63l-3.77-0.66c0.44,0.08,0.79-0.02,1.06-0.29
		c0.27-0.27,0.44-0.61,0.5-1l2.37-13.5c0.04-0.25,0.02-0.49-0.07-0.72c-0.09-0.24-0.28-0.38-0.55-0.43l2.05,0.06L402.84,102.91z"/>
	<path class="st13" d="M416.63,101.18c-0.1,0.77-0.32,1.47-0.66,2.09c-0.34,0.62-0.78,1.15-1.31,1.57
		c-0.53,0.42-1.14,0.73-1.81,0.91c-0.68,0.19-1.41,0.23-2.2,0.12c-0.77-0.1-1.47-0.33-2.08-0.68c-0.61-0.35-1.12-0.8-1.52-1.35
		c-0.4-0.54-0.69-1.16-0.87-1.85s-0.21-1.42-0.11-2.2s0.33-1.47,0.67-2.09c0.35-0.62,0.78-1.14,1.31-1.56
		c0.53-0.42,1.13-0.72,1.82-0.91c0.68-0.19,1.41-0.24,2.19-0.14c0.79,0.1,1.48,0.33,2.09,0.69c0.61,0.36,1.11,0.81,1.52,1.35
		c0.41,0.54,0.7,1.15,0.87,1.84S416.73,100.41,416.63,101.18z M407.3,99.96c-0.08,0.61-0.08,1.23,0,1.88
		c0.08,0.64,0.25,1.24,0.52,1.78c0.27,0.55,0.63,1.01,1.1,1.4c0.47,0.38,1.05,0.62,1.74,0.71c0.69,0.09,1.31,0.01,1.86-0.24
		c0.55-0.25,1.03-0.61,1.42-1.07c0.4-0.46,0.71-0.99,0.96-1.59c0.24-0.6,0.4-1.21,0.48-1.81s0.08-1.23,0-1.86
		c-0.08-0.64-0.25-1.23-0.52-1.78c-0.26-0.55-0.63-1.02-1.1-1.41c-0.47-0.38-1.05-0.62-1.74-0.71c-0.69-0.09-1.31-0.01-1.86,0.24
		c-0.55,0.25-1.03,0.61-1.43,1.08c-0.4,0.47-0.72,1-0.96,1.59C407.54,98.76,407.38,99.36,407.3,99.96z"/>
	<path class="st13" d="M428.8,111.1c-0.05,0.74-0.26,1.38-0.64,1.92c-0.38,0.54-0.85,0.98-1.41,1.32s-1.18,0.58-1.86,0.72
		c-0.68,0.14-1.35,0.19-2,0.15c-0.61-0.04-1.25-0.16-1.9-0.36s-1.25-0.48-1.78-0.85c-0.53-0.37-0.95-0.82-1.28-1.36
		s-0.47-1.18-0.42-1.91c0.04-0.58,0.22-1.11,0.54-1.59c0.32-0.47,0.74-0.84,1.25-1.1l0.04,0.04c-0.35,0.6-0.55,1.29-0.6,2.05
		c-0.05,0.71,0.03,1.35,0.24,1.92c0.21,0.57,0.51,1.06,0.91,1.47c0.4,0.41,0.88,0.74,1.45,0.99c0.57,0.25,1.2,0.39,1.88,0.44
		c0.51,0.03,1.04,0,1.59-0.11c0.54-0.11,1.05-0.3,1.51-0.56c0.46-0.26,0.85-0.6,1.17-1.02c0.31-0.42,0.49-0.93,0.53-1.53
		c0.01-0.1,0.01-0.19,0.01-0.29c0-0.1-0.01-0.2-0.03-0.3c-0.17-0.85-0.52-1.49-1.04-1.93c-0.53-0.44-1.14-0.77-1.83-0.98
		c-0.69-0.21-1.42-0.36-2.18-0.43c-0.76-0.07-1.45-0.16-2.08-0.27c-0.62-0.11-1.13-0.29-1.52-0.55c-0.4-0.26-0.57-0.68-0.53-1.26
		c0.03-0.53,0.24-0.96,0.62-1.31s0.8-0.6,1.25-0.77c-0.66-0.41-1.15-0.91-1.49-1.52s-0.48-1.3-0.43-2.08
		c0.04-0.67,0.22-1.25,0.52-1.73s0.69-0.89,1.16-1.2c0.47-0.31,0.99-0.53,1.58-0.67c0.59-0.14,1.19-0.18,1.8-0.14
		c0.4,0.03,0.81,0.04,1.23,0.05c0.42,0.01,0.84-0.01,1.26-0.05c0.42-0.04,0.83-0.12,1.23-0.23c0.4-0.11,0.77-0.28,1.12-0.49
		c-0.25-0.02-0.46-0.1-0.64-0.24c-0.18-0.14-0.26-0.36-0.24-0.63c0.01-0.22,0.11-0.41,0.28-0.57s0.37-0.23,0.59-0.21
		c0.24,0.02,0.43,0.11,0.57,0.28c0.14,0.17,0.21,0.37,0.19,0.61c-0.02,0.33-0.21,0.61-0.57,0.83c-0.36,0.22-0.77,0.4-1.23,0.53
		c-0.46,0.13-0.93,0.22-1.4,0.27c-0.47,0.05-0.83,0.08-1.08,0.1c0.49,0.14,0.94,0.34,1.35,0.6c0.41,0.26,0.76,0.56,1.05,0.92
		s0.51,0.76,0.66,1.21c0.15,0.45,0.21,0.94,0.17,1.47c-0.04,0.67-0.22,1.24-0.52,1.72c-0.3,0.48-0.69,0.88-1.17,1.19
		c-0.47,0.31-1.01,0.53-1.59,0.66c-0.59,0.13-1.19,0.17-1.8,0.13c-0.4-0.03-0.81-0.09-1.21-0.2c-0.41-0.1-0.79-0.25-1.15-0.44
		c-0.34,0.09-0.63,0.25-0.86,0.49c-0.23,0.24-0.36,0.54-0.38,0.92c-0.03,0.45,0.16,0.75,0.56,0.93s0.92,0.3,1.56,0.38
		s1.34,0.15,2.1,0.22c0.76,0.07,1.48,0.23,2.17,0.48c0.68,0.25,1.28,0.63,1.79,1.14c0.51,0.52,0.83,1.25,0.94,2.21
		c0.02,0.1,0.03,0.19,0.02,0.27C428.81,110.92,428.81,111.01,428.8,111.1z M420.19,100.15c-0.03,0.5,0.01,0.99,0.12,1.47
		c0.11,0.48,0.3,0.92,0.56,1.3c0.26,0.39,0.6,0.7,1.01,0.95c0.41,0.24,0.89,0.38,1.43,0.42c0.56,0.04,1.05-0.04,1.49-0.23
		c0.44-0.19,0.81-0.46,1.12-0.8c0.31-0.35,0.55-0.76,0.73-1.22c0.18-0.46,0.28-0.94,0.32-1.45c0.03-0.51-0.01-1.01-0.12-1.49
		c-0.11-0.48-0.3-0.91-0.56-1.29c-0.26-0.38-0.6-0.69-1.01-0.94c-0.41-0.24-0.89-0.38-1.45-0.42c-0.54-0.04-1.03,0.04-1.47,0.23
		s-0.81,0.46-1.12,0.81c-0.31,0.35-0.55,0.76-0.73,1.22C420.32,99.17,420.22,99.65,420.19,100.15z"/>
	<path class="st13" d="M441.13,102.23c0,0.78-0.14,1.5-0.4,2.16c-0.26,0.66-0.63,1.23-1.1,1.72s-1.04,0.86-1.69,1.13
		c-0.65,0.27-1.37,0.4-2.16,0.4c-0.78,0-1.5-0.14-2.15-0.42s-1.21-0.66-1.68-1.15c-0.46-0.49-0.83-1.07-1.09-1.73
		c-0.26-0.66-0.39-1.38-0.39-2.16c0-0.78,0.14-1.5,0.41-2.16c0.27-0.66,0.63-1.23,1.1-1.71c0.47-0.48,1.03-0.86,1.69-1.13
		c0.66-0.28,1.37-0.41,2.15-0.41c0.79,0,1.51,0.15,2.16,0.43s1.21,0.66,1.68,1.15c0.47,0.48,0.83,1.06,1.09,1.72
		C441,100.73,441.13,101.45,441.13,102.23z M431.72,102.19c0,0.61,0.07,1.23,0.23,1.86c0.16,0.63,0.4,1.2,0.73,1.71
		s0.75,0.93,1.27,1.25c0.51,0.32,1.12,0.49,1.82,0.49s1.3-0.15,1.82-0.47c0.52-0.32,0.94-0.73,1.28-1.24
		c0.34-0.51,0.59-1.07,0.75-1.7s0.25-1.25,0.25-1.86c0-0.61-0.07-1.23-0.23-1.85c-0.16-0.62-0.4-1.19-0.73-1.71
		s-0.75-0.94-1.27-1.26c-0.51-0.32-1.12-0.49-1.82-0.49c-0.7,0-1.3,0.15-1.82,0.47c-0.52,0.32-0.94,0.73-1.28,1.25
		c-0.34,0.51-0.59,1.08-0.75,1.7C431.81,100.96,431.73,101.58,431.72,102.19z"/>
	<path class="st13" d="M451.03,104.13c0.03,0.56-0.07,1.04-0.3,1.44c-0.23,0.4-0.53,0.74-0.91,1.01s-0.8,0.47-1.29,0.61
		c-0.48,0.14-0.96,0.22-1.43,0.24c-0.75,0.04-1.51-0.05-2.27-0.26c-0.76-0.21-1.45-0.57-2.04-1.06l0.12-0.13
		c0.6,0.46,1.25,0.79,1.96,1.01s1.44,0.3,2.19,0.26c0.35-0.02,0.7-0.08,1.07-0.19c0.36-0.11,0.69-0.27,0.99-0.48
		c0.3-0.21,0.54-0.47,0.72-0.78c0.19-0.31,0.27-0.67,0.25-1.07c-0.03-0.53-0.27-0.96-0.72-1.29c-0.45-0.33-0.98-0.61-1.58-0.83
		s-1.22-0.4-1.84-0.55s-1.12-0.3-1.51-0.44c-0.47-0.18-0.86-0.45-1.17-0.79c-0.31-0.34-0.48-0.77-0.51-1.3
		c-0.03-0.5,0.07-0.93,0.28-1.29c0.21-0.36,0.49-0.66,0.83-0.89c0.34-0.23,0.73-0.41,1.17-0.53c0.43-0.12,0.86-0.19,1.28-0.21
		c0.65-0.03,1.32,0.03,1.99,0.18c0.67,0.15,1.26,0.44,1.77,0.86c0.1,0.11,0.17,0.2,0.19,0.27c0.03,0.08,0.04,0.18,0.05,0.3
		c0.01,0.24-0.05,0.44-0.2,0.6c-0.15,0.16-0.34,0.25-0.57,0.26c-0.22,0.01-0.42-0.05-0.59-0.2s-0.26-0.33-0.27-0.57
		c-0.01-0.22,0.06-0.42,0.21-0.59c0.15-0.17,0.34-0.26,0.56-0.27c-0.46-0.28-0.97-0.47-1.52-0.57s-1.12-0.13-1.7-0.1
		c-0.28,0.01-0.57,0.07-0.88,0.17c-0.31,0.1-0.59,0.24-0.86,0.42c-0.26,0.18-0.47,0.4-0.63,0.66c-0.16,0.26-0.23,0.56-0.21,0.89
		c0.02,0.46,0.22,0.82,0.58,1.08c0.36,0.26,0.81,0.48,1.35,0.65s1.12,0.33,1.74,0.48c0.62,0.15,1.2,0.34,1.75,0.58
		c0.54,0.24,1,0.54,1.37,0.92C450.8,103,451,103.51,451.03,104.13z"/>
	<path class="st13" d="M454.15,106.23c0.01,0.18,0,0.38-0.03,0.59c-0.04,0.21-0.1,0.42-0.19,0.61s-0.2,0.37-0.34,0.52
		c-0.14,0.15-0.31,0.26-0.5,0.31c0.27-0.16,0.46-0.4,0.59-0.72c0.13-0.32,0.18-0.62,0.15-0.91l-0.01-0.1
		c-0.12,0.21-0.32,0.32-0.6,0.34c-0.22,0.02-0.42-0.03-0.6-0.16c-0.18-0.12-0.28-0.3-0.3-0.54c-0.02-0.26,0.04-0.48,0.2-0.66
		s0.36-0.27,0.62-0.29c0.32-0.03,0.56,0.06,0.72,0.26C454.04,105.69,454.13,105.94,454.15,106.23z"/>
	<path class="st13" d="M475.38,93.11c-1.09,0.21-1.94,0.64-2.55,1.3c-0.6,0.66-1.08,1.42-1.43,2.3c-0.35,0.88-0.64,1.81-0.87,2.79
		s-0.51,1.92-0.86,2.79c-0.34,0.87-0.81,1.64-1.39,2.29c-0.58,0.65-1.41,1.08-2.48,1.28c-0.45,0.09-0.91,0.12-1.38,0.09
		c-0.47-0.02-0.89-0.12-1.28-0.29c-0.39-0.17-0.72-0.41-1-0.74c-0.28-0.33-0.47-0.75-0.57-1.27c-0.11-0.58-0.05-1.1,0.17-1.57
		c0.22-0.47,0.55-0.88,1-1.22c0.35-0.26,0.76-0.49,1.25-0.68c0.49-0.19,0.98-0.39,1.46-0.6c0.48-0.21,0.93-0.46,1.33-0.73
		s0.69-0.63,0.86-1.06c0.03-0.06,0.07-0.18,0.12-0.34c0.05-0.17,0.06-0.28,0.05-0.35c-0.08-0.4-0.22-0.73-0.43-0.99
		c-0.21-0.26-0.47-0.47-0.77-0.63c-0.3-0.16-0.63-0.25-0.98-0.29c-0.35-0.04-0.71-0.02-1.07,0.04c-0.31,0.06-0.64,0.16-0.96,0.29
		c-0.33,0.13-0.63,0.3-0.91,0.5c-0.28,0.2-0.53,0.44-0.75,0.71c-0.22,0.27-0.38,0.56-0.49,0.88c0.1-0.06,0.2-0.1,0.3-0.12
		c0.22-0.04,0.42,0,0.61,0.13c0.19,0.13,0.3,0.3,0.34,0.52s0,0.42-0.13,0.61s-0.3,0.3-0.52,0.34c-0.25,0.05-0.46,0-0.63-0.14
		c-0.18-0.14-0.29-0.33-0.33-0.56c-0.01-0.04-0.01-0.12,0-0.23c0.08-0.44,0.24-0.84,0.46-1.18s0.5-0.65,0.81-0.91
		c0.32-0.26,0.67-0.48,1.06-0.65c0.38-0.17,0.79-0.3,1.21-0.38c0.41-0.08,0.86-0.1,1.34-0.08c0.48,0.03,0.93,0.13,1.35,0.29
		c0.42,0.17,0.79,0.4,1.11,0.71c0.32,0.31,0.53,0.71,0.62,1.2l0.8,4.19c0.27-0.86,0.52-1.73,0.74-2.61c0.22-0.88,0.52-1.73,0.9-2.56
		c0-0.1-0.02-0.19-0.03-0.28c-0.02-0.09-0.03-0.18-0.05-0.28c-0.03-0.14-0.06-0.29-0.11-0.45c-0.04-0.16-0.11-0.31-0.19-0.44
		c-0.08-0.13-0.19-0.24-0.32-0.31c-0.13-0.08-0.29-0.09-0.48-0.06l1.91-0.66l0.19,0.98c0.42-0.49,0.89-0.88,1.42-1.18
		c0.53-0.29,1.11-0.5,1.74-0.62c0.38-0.07,0.8-0.1,1.24-0.09s0.86,0.09,1.26,0.24s0.74,0.36,1.04,0.64
		c0.29,0.28,0.49,0.66,0.58,1.12l1.22,6.34c0.08,0.4,0.25,0.73,0.52,1c0.27,0.27,0.62,0.36,1.06,0.28l-3.78,0.7
		c0.44-0.08,0.73-0.3,0.89-0.65c0.15-0.35,0.19-0.72,0.12-1.12l-1.2-6.27c-0.16-0.83-0.53-1.41-1.1-1.72
		C476.85,93.04,476.17,92.96,475.38,93.11z M465.21,105.76c0.11,0.01,0.23,0,0.36-0.03s0.24-0.05,0.35-0.07
		c0.73-0.14,1.33-0.4,1.83-0.78c0.49-0.38,0.92-0.88,1.26-1.52l-1.13-5.89c-0.08,0.47-0.28,0.85-0.6,1.14
		c-0.32,0.29-0.69,0.54-1.1,0.74s-0.84,0.41-1.29,0.6c-0.45,0.19-0.84,0.43-1.17,0.7s-0.59,0.62-0.77,1.04
		c-0.17,0.42-0.2,0.96-0.07,1.63c0.06,0.29,0.15,0.57,0.28,0.86c0.13,0.29,0.3,0.55,0.49,0.78c0.19,0.23,0.42,0.42,0.69,0.56
		C464.6,105.68,464.89,105.75,465.21,105.76z M471.7,104.13c-0.36,0.4-0.82,0.65-1.37,0.75c-0.29,0.05-0.54,0.03-0.76-0.08
		c-0.22-0.11-0.36-0.32-0.42-0.63c-0.01-0.05,0.02-0.17,0.1-0.35c0.08-0.18,0.17-0.37,0.27-0.58s0.2-0.41,0.3-0.61
		c0.1-0.2,0.16-0.34,0.18-0.43c0.03,0.16,0.06,0.33,0.07,0.5s0.04,0.33,0.07,0.5c0.02,0.1,0.05,0.22,0.08,0.38
		c0.04,0.16,0.09,0.3,0.16,0.44s0.15,0.25,0.25,0.33c0.1,0.09,0.23,0.12,0.38,0.09c0.11-0.02,0.22-0.06,0.34-0.12
		C471.49,104.26,471.6,104.2,471.7,104.13z M473.92,102.48c0.08,0.4,0.25,0.73,0.52,1c0.27,0.27,0.62,0.36,1.06,0.28l-3.76,0.7
		c0.44-0.08,0.73-0.3,0.89-0.65s0.19-0.72,0.12-1.12l-0.96-5.02c-0.06-0.31-0.08-0.58-0.07-0.78c0.02-0.21,0.06-0.4,0.14-0.57
		c0.07-0.17,0.17-0.34,0.28-0.52s0.24-0.39,0.38-0.65L473.92,102.48z"/>
	<path class="st13" d="M492.88,97c0.14,0.45,0.32,0.81,0.56,1.05c0.23,0.25,0.62,0.29,1.15,0.11l-2.19,1.35l-0.53-1.76
		c-0.26,0.69-0.67,1.29-1.24,1.79s-1.21,0.87-1.93,1.08c-0.73,0.22-1.42,0.28-2.07,0.18c-0.65-0.1-1.24-0.33-1.76-0.68
		s-0.98-0.81-1.36-1.37c-0.38-0.56-0.67-1.19-0.88-1.88c-0.24-0.79-0.33-1.54-0.29-2.26s0.21-1.37,0.52-1.97
		c0.31-0.59,0.75-1.11,1.31-1.56c0.56-0.45,1.25-0.79,2.05-1.03c0.57-0.17,1.16-0.24,1.75-0.2c0.59,0.04,1.16,0.21,1.7,0.49
		l-1.71-5.7c-0.07-0.23-0.2-0.43-0.39-0.6c-0.19-0.17-0.42-0.22-0.69-0.14l1.84-0.86L492.88,97z M483.92,96.42
		c0.17,0.57,0.42,1.13,0.73,1.67s0.69,1,1.12,1.38s0.93,0.65,1.5,0.8s1.17,0.14,1.83-0.06s1.21-0.55,1.68-1.06
		c0.46-0.51,0.8-1.09,1-1.73l-2.01-6.68c-0.42-0.34-0.95-0.57-1.58-0.68c-0.63-0.12-1.21-0.1-1.73,0.06
		c-0.69,0.21-1.25,0.54-1.68,0.99c-0.42,0.46-0.73,0.97-0.92,1.55c-0.19,0.58-0.27,1.2-0.25,1.85
		C483.63,95.17,483.73,95.81,483.92,96.42z"/>
	<path class="st13" d="M503.33,93.9c0.16,0.37,0.41,0.66,0.74,0.86s0.7,0.22,1.09,0.05l-3.52,1.54c0.41-0.18,0.65-0.46,0.72-0.84
		c0.07-0.38,0.02-0.75-0.14-1.12l-3.04-6.95c-0.09-0.22-0.24-0.4-0.45-0.56c-0.2-0.15-0.43-0.17-0.69-0.06l1.72-1.07l0.8,1.82
		c-0.03-0.37,0.02-0.73,0.13-1.07s0.28-0.67,0.49-0.96s0.47-0.55,0.75-0.78s0.59-0.41,0.91-0.55c0.34-0.15,0.7-0.25,1.07-0.31
		c0.37-0.06,0.74-0.06,1.1-0.01c0.36,0.05,0.7,0.16,1.02,0.34c0.32,0.18,0.59,0.43,0.82,0.76c-0.06-0.38-0.04-0.75,0.06-1.11
		c0.1-0.36,0.26-0.69,0.47-1.01c0.21-0.31,0.47-0.59,0.78-0.83c0.31-0.24,0.62-0.43,0.96-0.58c0.34-0.15,0.72-0.25,1.13-0.31
		c0.41-0.06,0.81-0.05,1.21,0.02c0.4,0.07,0.76,0.21,1.09,0.42c0.33,0.21,0.58,0.52,0.75,0.91l2.58,5.89
		c0.16,0.37,0.4,0.66,0.72,0.87c0.32,0.21,0.68,0.22,1.09,0.05l-3.5,1.53c0.41-0.18,0.65-0.46,0.72-0.84
		c0.07-0.38,0.02-0.75-0.14-1.12l-2.58-5.89c-0.3-0.69-0.73-1.15-1.28-1.38c-0.55-0.23-1.17-0.19-1.88,0.11
		c-0.62,0.27-1.12,0.65-1.47,1.12s-0.55,1.06-0.58,1.76c-0.01,0.05-0.01,0.16,0,0.34c0.01,0.18,0.02,0.28,0.03,0.31l2.58,5.89
		c0.16,0.37,0.41,0.66,0.74,0.86s0.7,0.22,1.09,0.05l-3.52,1.54c0.41-0.18,0.65-0.46,0.72-0.84c0.07-0.38,0.02-0.75-0.14-1.12
		l-2.58-5.89c-0.3-0.69-0.72-1.15-1.27-1.38c-0.54-0.23-1.17-0.2-1.87,0.11c-0.64,0.28-1.13,0.66-1.49,1.13
		c-0.35,0.47-0.54,1.06-0.56,1.75c-0.01,0.05-0.01,0.16-0.01,0.34c0,0.17,0.01,0.28,0.03,0.32L503.33,93.9z"/>
	<path class="st13" d="M526.1,83.37c-0.17,0.65-0.48,1.23-0.94,1.75c-0.45,0.52-0.97,0.94-1.56,1.26c-0.38,0.21-0.79,0.37-1.24,0.49
		s-0.88,0.16-1.3,0.13s-0.82-0.15-1.19-0.35s-0.68-0.52-0.92-0.96l-3.14-5.74c-0.11-0.21-0.28-0.38-0.51-0.51
		c-0.22-0.13-0.46-0.13-0.7,0l1.62-1.22l3.77,6.89c0.42,0.77,0.96,1.24,1.61,1.39c0.65,0.16,1.35,0.03,2.11-0.38
		c0.23-0.13,0.47-0.29,0.71-0.48c0.24-0.2,0.46-0.41,0.67-0.65s0.38-0.49,0.52-0.76c0.15-0.27,0.23-0.54,0.26-0.81
		c0.01-0.04,0.02-0.11,0.02-0.22s-0.01-0.19-0.03-0.22l-3.59-6.56c-0.11-0.21-0.28-0.38-0.5-0.51c-0.22-0.13-0.46-0.13-0.7,0
		l1.62-1.22l4.4,8.05c0.09,0.17,0.22,0.35,0.39,0.55c0.17,0.19,0.38,0.22,0.62,0.09c0.11-0.06,0.21-0.13,0.3-0.22
		c0.09-0.09,0.17-0.17,0.26-0.25c-0.11,0.23-0.25,0.45-0.43,0.64s-0.39,0.35-0.62,0.48c-0.39,0.21-0.7,0.24-0.92,0.09
		C526.48,83.95,526.28,83.7,526.1,83.37z"/>
	<path class="st13" d="M539.02,64.23c-0.68,0.46-1.18,0.98-1.49,1.56c-0.31,0.58-0.52,1.2-0.61,1.87c-0.09,0.67-0.1,1.36-0.02,2.08
		c0.07,0.72,0.16,1.45,0.26,2.19s0.18,1.47,0.24,2.21c0.06,0.73,0.02,1.44-0.1,2.13c-0.12,0.69-0.37,1.34-0.75,1.96
		c-0.37,0.62-0.93,1.18-1.68,1.69c-0.66,0.44-1.34,0.73-2.03,0.85c-0.7,0.12-1.37,0.11-2.03-0.04s-1.27-0.43-1.86-0.85
		c-0.58-0.42-1.09-0.95-1.52-1.58c-0.43-0.65-0.74-1.32-0.91-2.02s-0.2-1.38-0.09-2.05s0.35-1.3,0.73-1.9
		c0.38-0.6,0.91-1.12,1.56-1.57c0.77-0.52,1.59-0.82,2.46-0.91c0.86-0.09,1.7,0.12,2.52,0.64c0.1,0.05,0.19,0.14,0.28,0.27
		c0.13,0.2,0.18,0.4,0.14,0.61c-0.04,0.21-0.16,0.39-0.36,0.52c-0.19,0.12-0.39,0.17-0.61,0.12c-0.22-0.04-0.4-0.16-0.52-0.34
		c-0.12-0.18-0.17-0.39-0.12-0.61c0.04-0.22,0.16-0.4,0.34-0.52c0.13-0.08,0.25-0.14,0.38-0.15c-0.63-0.29-1.3-0.39-1.99-0.3
		s-1.32,0.33-1.89,0.71c-0.6,0.4-1.05,0.88-1.34,1.43c-0.29,0.55-0.46,1.13-0.51,1.74c-0.04,0.61,0.03,1.22,0.22,1.84
		c0.19,0.62,0.47,1.2,0.83,1.74s0.8,1.02,1.3,1.43s1.04,0.71,1.61,0.91c0.57,0.2,1.16,0.26,1.78,0.2s1.22-0.29,1.81-0.69
		c0.59-0.4,1.04-0.84,1.36-1.34s0.54-1.03,0.68-1.59c0.13-0.56,0.2-1.14,0.18-1.75c-0.01-0.6-0.05-1.22-0.13-1.84
		c-0.07-0.62-0.16-1.24-0.25-1.86c-0.1-0.62-0.15-1.21-0.17-1.79l-4.29-6.38c-0.14-0.21-0.32-0.37-0.55-0.48
		c-0.22-0.11-0.46-0.08-0.7,0.08l1.5-1.36l4.14,6.15c0.15-0.72,0.41-1.35,0.78-1.89c0.37-0.53,0.86-1,1.46-1.41
		c0.35-0.23,0.73-0.44,1.16-0.62c0.43-0.18,0.85-0.28,1.28-0.32c0.43-0.04,0.84,0.01,1.24,0.15s0.76,0.4,1.07,0.79l3.59,5.34
		c0.23,0.33,0.52,0.57,0.88,0.71c0.36,0.14,0.72,0.08,1.08-0.16l-3.18,2.12c0.37-0.25,0.56-0.56,0.56-0.94
		c0-0.38-0.11-0.74-0.33-1.07l-3.53-5.24c-0.25-0.37-0.53-0.64-0.83-0.82c-0.31-0.18-0.63-0.28-0.97-0.3s-0.69,0.03-1.04,0.15
		C539.7,63.83,539.35,64,539.02,64.23z M541.08,73.54c0.23,0.33,0.52,0.57,0.88,0.71c0.36,0.14,0.72,0.08,1.08-0.16l-3.18,2.12
		c0.37-0.25,0.56-0.56,0.56-0.94c0-0.38-0.11-0.74-0.33-1.07l-2.3-3.42c-0.33-0.5-0.52-0.99-0.57-1.47s-0.06-1.01-0.03-1.56
		L541.08,73.54z"/>
	<path class="st13" d="M556.18,62.43c0.25,0.31,0.57,0.53,0.94,0.63s0.73,0.03,1.07-0.25l-2.99,2.42c0.35-0.28,0.5-0.61,0.47-1
		c-0.03-0.38-0.18-0.73-0.43-1.05l-4.78-5.89c-0.15-0.18-0.34-0.32-0.58-0.42c-0.24-0.09-0.46-0.05-0.68,0.12l1.37-1.49l1.25,1.54
		c-0.12-0.35-0.17-0.71-0.16-1.07s0.09-0.72,0.22-1.05s0.3-0.65,0.52-0.95c0.22-0.29,0.46-0.55,0.73-0.77
		c0.29-0.24,0.61-0.43,0.95-0.58s0.7-0.25,1.06-0.31c0.36-0.05,0.72-0.03,1.07,0.06c0.35,0.09,0.68,0.26,0.99,0.51
		c-0.16-0.35-0.24-0.71-0.24-1.09s0.07-0.74,0.19-1.09c0.12-0.36,0.3-0.69,0.53-1.01s0.49-0.58,0.77-0.81
		c0.29-0.24,0.63-0.44,1.01-0.6c0.38-0.16,0.77-0.26,1.17-0.3c0.4-0.04,0.79,0,1.16,0.12c0.37,0.12,0.7,0.35,0.97,0.68l4.05,5
		c0.25,0.31,0.56,0.53,0.93,0.65c0.36,0.12,0.72,0.04,1.07-0.25l-2.97,2.41c0.35-0.28,0.5-0.61,0.47-1
		c-0.03-0.38-0.18-0.73-0.43-1.05l-4.05-5c-0.47-0.58-1.01-0.92-1.6-0.99c-0.59-0.08-1.18,0.13-1.78,0.61
		c-0.53,0.43-0.9,0.92-1.12,1.47s-0.25,1.17-0.09,1.85c0,0.05,0.04,0.16,0.09,0.33c0.06,0.17,0.09,0.27,0.11,0.29l4.05,5
		c0.25,0.31,0.57,0.53,0.94,0.63c0.37,0.11,0.73,0.03,1.07-0.25l-2.99,2.42c0.35-0.28,0.5-0.61,0.47-1
		c-0.03-0.38-0.18-0.73-0.43-1.05l-4.05-5c-0.47-0.58-1-0.92-1.59-1c-0.58-0.08-1.18,0.12-1.77,0.6c-0.54,0.44-0.92,0.93-1.14,1.49
		c-0.22,0.55-0.24,1.16-0.07,1.83c0,0.05,0.03,0.16,0.08,0.33c0.05,0.17,0.08,0.27,0.11,0.3L556.18,62.43z"/>
	<path class="st13" d="M574.3,43.05c0.42,0.58,0.73,1.17,0.92,1.8c0.19,0.62,0.26,1.24,0.21,1.86c-0.05,0.62-0.22,1.22-0.52,1.8
		s-0.71,1.12-1.24,1.61c-0.58,0.54-1.2,0.94-1.86,1.18c-0.66,0.24-1.32,0.35-1.99,0.32s-1.32-0.2-1.96-0.51
		c-0.64-0.31-1.23-0.75-1.76-1.32c-0.53-0.57-0.93-1.18-1.19-1.84s-0.39-1.32-0.38-1.99s0.16-1.33,0.45-1.97s0.72-1.23,1.3-1.77
		c0.59-0.55,1.22-0.95,1.88-1.2c0.66-0.25,1.33-0.35,2.01-0.32c0.67,0.04,1.33,0.21,1.97,0.53c0.64,0.32,1.23,0.77,1.77,1.34
		c-0.01-0.35-0.03-0.71-0.07-1.07c-0.04-0.36-0.08-0.71-0.13-1.07l-1.56-1.66c-0.16-0.17-0.36-0.3-0.61-0.38
		c-0.24-0.08-0.47-0.02-0.67,0.17l1.26-1.58l1.34,1.43c-0.06-0.82,0-1.58,0.17-2.28c0.18-0.7,0.57-1.34,1.2-1.92
		c0.14-0.13,0.33-0.28,0.56-0.44c0.23-0.16,0.48-0.29,0.73-0.38c0.25-0.09,0.51-0.14,0.76-0.14s0.46,0.1,0.63,0.28
		c0.15,0.16,0.23,0.36,0.22,0.58c0,0.22-0.09,0.41-0.26,0.58c-0.16,0.15-0.35,0.22-0.58,0.21c-0.22-0.01-0.41-0.1-0.56-0.26
		c-0.13-0.14-0.21-0.31-0.23-0.49c-0.02-0.18,0.03-0.36,0.14-0.52c-0.25,0.06-0.48,0.16-0.7,0.29c-0.22,0.13-0.43,0.29-0.62,0.47
		c-0.58,0.54-0.95,1.14-1.11,1.8c-0.16,0.66-0.22,1.34-0.19,2.06s0.12,1.46,0.24,2.23c0.13,0.77,0.18,1.54,0.17,2.3
		c-0.02,0.77-0.16,1.53-0.42,2.28c-0.26,0.75-0.76,1.47-1.49,2.15c-0.44,0.41-0.92,0.73-1.45,0.97c-0.53,0.24-1.06,0.37-1.6,0.4
		c-0.54,0.03-1.07-0.06-1.59-0.27s-1.01-0.54-1.44-1.01c-0.17-0.18-0.33-0.38-0.47-0.59c0.15,0.41,0.35,0.8,0.6,1.17
		c0.24,0.37,0.52,0.72,0.82,1.05c0.42,0.45,0.9,0.85,1.45,1.19c0.54,0.35,1.11,0.59,1.69,0.74c0.58,0.14,1.17,0.16,1.76,0.04
		c0.59-0.11,1.14-0.41,1.66-0.9c0.38-0.35,0.65-0.71,0.83-1.07c0.17-0.36,0.28-0.74,0.31-1.12c0.03-0.38,0-0.78-0.09-1.18
		c-0.09-0.4-0.21-0.82-0.35-1.26c-0.15-0.45-0.19-0.84-0.12-1.17S574.28,43.49,574.3,43.05z M566.23,47.2
		c0.42,0.45,0.88,0.77,1.37,0.96s1,0.28,1.52,0.25c0.52-0.03,1.03-0.15,1.52-0.38s0.96-0.54,1.38-0.94c0.41-0.38,0.76-0.8,1.05-1.25
		c0.29-0.45,0.5-0.95,0.64-1.5c-0.11-0.16-0.23-0.32-0.35-0.49c-0.12-0.16-0.26-0.32-0.4-0.47c-0.42-0.45-0.9-0.85-1.45-1.19
		c-0.54-0.35-1.11-0.6-1.7-0.74c-0.59-0.15-1.18-0.16-1.77-0.04c-0.59,0.12-1.15,0.42-1.67,0.9c-0.37,0.34-0.65,0.72-0.84,1.14
		c-0.19,0.42-0.29,0.84-0.3,1.27c-0.01,0.43,0.07,0.86,0.23,1.29C565.63,46.44,565.88,46.83,566.23,47.2z M578.23,43.49
		c0.28,0.3,0.6,0.48,0.96,0.56c0.37,0.08,0.71-0.03,1.02-0.33l-2.79,2.58c0.32-0.29,0.45-0.63,0.4-1c-0.05-0.37-0.21-0.7-0.49-1
		l-2.15-2.3c-0.4-0.43-0.68-0.89-0.84-1.39c-0.17-0.5-0.27-1.04-0.31-1.61L578.23,43.49z"/>
	<path class="st13" d="M589.25,32.01c0.18,0.65,0.17,1.32-0.02,2.03c-0.19,0.71-0.62,1.42-1.3,2.14c-0.54,0.57-1.13,0.97-1.77,1.22
		c-0.64,0.25-1.3,0.35-1.96,0.33c-0.67-0.03-1.32-0.18-1.97-0.47s-1.24-0.68-1.78-1.19c-0.52-0.49-0.94-1.03-1.27-1.63
		s-0.54-1.22-0.62-1.85c-0.08-0.63-0.03-1.27,0.16-1.9c0.19-0.64,0.55-1.23,1.07-1.79c0.41-0.44,0.87-0.78,1.38-1.04
		c0.51-0.26,1.03-0.41,1.57-0.46c0.54-0.05,1.07,0.01,1.6,0.19s1.02,0.48,1.47,0.9l-5.34,5.65c0.26,0.36,0.54,0.68,0.86,0.98
		c0.46,0.43,0.97,0.79,1.54,1.08c0.57,0.29,1.16,0.48,1.76,0.56c0.6,0.08,1.2,0.03,1.78-0.15c0.58-0.18,1.11-0.52,1.59-1.03
		c0.49-0.52,0.83-1.07,1.04-1.66c0.21-0.59,0.24-1.22,0.12-1.87L589.25,32.01z M580.43,28.82c-0.34,0.36-0.59,0.76-0.73,1.2
		c-0.14,0.43-0.21,0.88-0.2,1.34c0.01,0.46,0.09,0.91,0.25,1.35c0.16,0.44,0.36,0.86,0.62,1.26l4.41-4.66
		c0.16-0.17,0.27-0.37,0.32-0.58c0.05-0.21-0.03-0.42-0.23-0.61c-0.29-0.28-0.65-0.45-1.06-0.51c-0.41-0.06-0.82-0.05-1.24,0.05
		c-0.42,0.1-0.81,0.25-1.19,0.46C580.99,28.32,580.67,28.56,580.43,28.82z"/>
	<path class="st13" d="M592.51,29.65c0.18,0.16,0.27,0.37,0.29,0.63c0.02,0.27-0.06,0.49-0.21,0.66c-0.17,0.19-0.38,0.29-0.64,0.3
		s-0.48-0.06-0.66-0.22c-0.19-0.17-0.29-0.38-0.3-0.63s0.06-0.48,0.23-0.67c0.16-0.18,0.37-0.27,0.63-0.29
		C592.1,29.41,592.32,29.49,592.51,29.65z"/>
</g>
</svg>
